<svg xmlns="http://www.w3.org/2000/svg" viewBox="0 0 500 500"><g id="freepik--background-complete--inject-76"><path d="M430.59,456.9c-8-14.93-24.91-25.1-42.44-25.5,10.64-11.25,12.74-28.66,6.6-42.66S375.11,364.32,360,359.82s-31.73-3.44-46.83,1.21c1.75-10.94-9.69-21.85-21.13-20.16A10.61,10.61,0,0,0,295.32,327c-2.68-4.52-9.18-6.55-14.13-4.4l.67-80.19H232l.67,80.19c-5-2.15-11.45-.12-14.13,4.4a10.62,10.62,0,0,0,3.32,13.85c-11.43-1.69-22.87,9.22-21.12,20.16-15.1-4.65-31.69-5.71-46.84-1.21s-28.65,14.93-34.79,28.92-4,31.41,6.6,42.66c-17.53.4-34.45,10.57-42.44,25.5-4.64,8.67-5.07,21.49,4,26H426.64C435.66,478.39,435.23,465.57,430.59,456.9Z" style="fill:#f5f5f5"></path><polygon points="191.81 85.05 252.12 14.84 310.08 85.05 287.46 85.05 287.46 245.11 217.25 245.11 217.25 85.17 191.81 85.05" style="fill:#e0e0e0"></polygon><polygon points="122.17 148.28 134.69 133.72 146.71 148.28 142.02 148.28 142.02 180.18 127.45 180.18 127.45 148.31 122.17 148.28" style="fill:#f5f5f5"></polygon><polygon points="421.56 350.53 434.07 335.97 446.09 350.53 441.4 350.53 441.4 382.43 426.84 382.43 426.84 350.56 421.56 350.53" style="fill:#f5f5f5"></polygon><polygon points="326.5 60.42 343.05 41.15 358.96 60.42 352.75 60.42 352.75 102.64 333.48 102.64 333.48 60.46 326.5 60.42" style="fill:#f5f5f5"></polygon><path d="M115.33,231.94a33.78,33.78,0,0,0-4-8.27,11.39,11.39,0,0,0-7.51-4.88c-3-.38-6.42,1.27-7.42,4.18-.43-6.55-1.36-13.27-4.64-19s-9.39-10.15-16-9.75c-6.17.38-11.46,5-14.4,10.41s-4,11.7-4.91,17.81c-2.35-2.87-7.29-2-9.73.82s-3.07,6.68-3.59,10.35H116.9Z" style="fill:#ebebeb"></path><path d="M171.89,96.89c-1.47-3.92-3-7.88-5.43-11.26S160.39,79.5,156.25,79s-8.75,1.73-10.1,5.68c-.59-8.91-1.85-18-6.31-25.78s-12.79-13.82-21.7-13.27c-8.4.51-15.6,6.76-19.6,14.17S93.17,75.69,91.86,84C88.68,80.1,82,81.33,78.63,85.12s-4.17,9.09-4.88,14.08H174Z" style="fill:#ebebeb"></path><path d="M450.12,253.32a23.86,23.86,0,0,0-2.76-5.73,7.91,7.91,0,0,0-5.2-3.38A4.83,4.83,0,0,0,437,247.1c-.3-4.53-.94-9.18-3.21-13.12s-6.51-7-11-6.75c-4.28.26-7.94,3.44-10,7.21s-2.73,8.09-3.4,12.33c-1.62-2-5-1.37-6.73.56s-2.13,4.63-2.49,7.17h51Z" style="fill:#ebebeb"></path><path d="M97.29,419.23a22.9,22.9,0,0,0-2.76-5.72,7.86,7.86,0,0,0-5.2-3.38A4.81,4.81,0,0,0,84.2,413c-.31-4.54-1-9.19-3.22-13.12s-6.5-7-11-6.76c-4.28.26-7.94,3.44-10,7.21s-2.74,8.1-3.4,12.33c-1.62-2-5-1.36-6.74.57s-2.12,4.62-2.48,7.16h51Z" style="fill:#ebebeb"></path><path d="M443.56,115.92a32.09,32.09,0,0,0-3.77-7.82,10.82,10.82,0,0,0-7.09-4.62c-2.89-.35-6.08,1.21-7,4-.41-6.19-1.29-12.54-4.39-17.91s-8.88-9.6-15.07-9.22c-5.84.36-10.83,4.69-13.61,9.84s-3.73,11-4.64,16.83c-2.22-2.71-6.89-1.86-9.2.77s-2.9,6.32-3.39,9.79H445Z" style="fill:#ebebeb"></path></g><g id="freepik--Floor--inject-76"><path d="M480.13,482.92c0,.15-103,.26-230.12.26s-230.14-.11-230.14-.26,103-.26,230.14-.26S480.13,482.78,480.13,482.92Z" style="fill:#263238"></path></g><g id="freepik--speech-bubble--inject-76"><path d="M211.18,101.89,206.49,97a21.61,21.61,0,1,0-2.46,7.34h0Z" style="fill:#fff"></path><path d="M211.18,101.89l-.48.16-1.38.46-5.32,1.8.09.07h0a.07.07,0,0,0,0-.08.08.08,0,0,0-.08,0,21.5,21.5,0,0,1-7.29,7.74,21.94,21.94,0,0,1-2.93,1.56,24.79,24.79,0,0,1-3.38,1.12,21.47,21.47,0,0,1-22.55-8.19,21.43,21.43,0,0,1,2.26-27.79,21.93,21.93,0,0,1,8.41-5.15,21.14,21.14,0,0,1,9.24-.9,21.47,21.47,0,0,1,14.09,7.8l.57.73a6.17,6.17,0,0,1,.52.74l1,1.49a29.21,29.21,0,0,1,1.4,3A21.41,21.41,0,0,1,206.42,97a.08.08,0,0,0,0,0l3.5,3.58c.4.41.7.72.92.93s.32.32.32.32l-.29-.31-.88-.94L206.53,97l0,.06a21.43,21.43,0,0,0-1.1-10.59A29.74,29.74,0,0,0,204,83.37l-.94-1.52a6.26,6.26,0,0,0-.53-.74l-.57-.74a21.61,21.61,0,0,0-6-5.15,21.9,21.9,0,0,0-8.25-2.78,21.37,21.37,0,0,0-9.36.9,22,22,0,0,0-8.53,5.21,21.54,21.54,0,0,0-5.44,8.93,9.17,9.17,0,0,0-.35,1.27l-.3,1.27-.17,1.29a8.06,8.06,0,0,0-.13,1.29c0,.43,0,.86,0,1.29a10.87,10.87,0,0,0,0,1.28c0,.43,0,.86.09,1.28s.13.83.2,1.25a21.35,21.35,0,0,0,3.81,9A21.65,21.65,0,0,0,190.43,115a24.67,24.67,0,0,0,3.4-1.15,21.62,21.62,0,0,0,10.26-9.43l-.13,0h0a.06.06,0,0,0,0,.08h0l5.33-1.89,1.35-.48Z" style="fill:#263238"></path><path d="M190.58,91.25l-6.12-7.87L178,91l3.34,0-.13,10.53h5.94l.17-10.42Z" style="fill:#FF725E"></path></g><g id="freepik--character-3--inject-76"><path d="M368.34,295.11c.44-11.38,4-22.56,5.71-33.88s1.46-23.23-5.25-33.47l-18.11-7.52C339.38,225,336.34,234.4,333.6,243.1c-3.74,11.85-8.78,19.08-12.93,27.22-1.33,2.61-5.18,8.35-7.58,11.9a142.56,142.56,0,0,0-15.44,30.39c-5.1,13.31-7.29,34.07-6,48.41.27,3,.84,6.11,2.67,8.38s5.25,3.24,7.42,1.37c1.38-1.18,1.93-3.13,2.86-4.75.77-1.34,2.17-2.52,3.52-2.41a6.6,6.6,0,0,0,1.7.92c3.88,1.4,8.3-1.1,10.59-3.81s4-6,7.78-7.5c4.22-1.65,9.41-.41,13.66,1.2s8.55,3.65,13.31,3.55c5.15-.11,9.51-2.67,13.82-4.76s9.76-3.85,14.45-2.27C375.56,332.78,367.59,314.18,368.34,295.11Z" style="fill:#FF725E"></path><g style="opacity:0.30000000000000004"><path d="M366.85,293.89c.43-11.38,3.9-22.56,5.57-33.88s1.11-22.74-5.42-33l-9.29-3.89c-18.25,14.25-16.22,36.73-22.79,49.95-7,14.12-20.58,29-24.1,43.85s-5.88,34.48,4,47.55a14.24,14.24,0,0,0,5.9-4.17c2.23-2.71,3.7-5.65,7.45-7.1,3.15-1.22,7.33-1,11.24.37h0c5.35,2,5.61,2.18,9.9,3.57,2.48.79,6.63,1.39,9.63,0a52.55,52.55,0,0,0,8.85-3.54c4.2-2.09,11-4.28,15.61-2.7C375.76,332.78,366.12,313,366.85,293.89Z"></path></g><path d="M333.87,275.83a.77.77,0,0,1-.08.22l-.29.65c-.25.57-.65,1.4-1.2,2.45a96.51,96.51,0,0,1-5.16,8.59c-2.32,3.55-5.26,7.64-8.22,12.37a77.89,77.89,0,0,0-4.22,7.66c-.7,1.35-1.24,2.79-1.89,4.22s-1.16,2.93-1.62,4.47a66.29,66.29,0,0,0-3.34,17.76A60.88,60.88,0,0,0,308.94,349c.24,1,.4,2,.66,2.93s.5,1.78.72,2.58c.5,1.6,1,3,1.4,4.07l1.06,2.51.26.65a.9.9,0,0,1,.07.24.88.88,0,0,1-.12-.21c-.08-.17-.19-.38-.31-.64l-1.15-2.48c-.41-1.1-1-2.45-1.48-4.05-.24-.81-.5-1.67-.77-2.59s-.45-1.91-.7-2.94a59.58,59.58,0,0,1-1.21-14.82,66,66,0,0,1,3.32-17.9c.47-1.55,1.1-3,1.64-4.51s1.21-2.89,1.91-4.24a74.45,74.45,0,0,1,4.28-7.69c3-4.74,6-8.81,8.31-12.32s4.15-6.42,5.29-8.49c.58-1,1-1.84,1.29-2.39l.33-.63C333.82,275.89,333.86,275.82,333.87,275.83Z" style="fill:#263238"></path><path d="M332.55,305.85a7,7,0,0,1-.43,1.39c-.32.89-.75,2.17-1.24,3.78a76.91,76.91,0,0,0-3.4,25.81c.06,1.68.14,3,.22,4a8.9,8.9,0,0,1,.06,1.46,7.21,7.21,0,0,1-.26-1.44c-.14-.93-.28-2.29-.39-4a68.55,68.55,0,0,1,3.42-26c.54-1.59,1-2.87,1.4-3.73A8.2,8.2,0,0,1,332.55,305.85Z" style="fill:#263238"></path><path d="M337.51,317.77a25.62,25.62,0,0,1-.31,3,49.31,49.31,0,0,0-.29,7.11,48.81,48.81,0,0,0,.76,7.09,25.87,25.87,0,0,1,.51,2.92,12.46,12.46,0,0,1-.87-2.85,38.06,38.06,0,0,1-.48-14.32A12.68,12.68,0,0,1,337.51,317.77Z" style="fill:#263238"></path><path d="M342.16,187.55a2.81,2.81,0,0,1,2-2.54,3.84,3.84,0,0,1,4.35-1.92,3.48,3.48,0,0,1,3-1.48,3.54,3.54,0,0,1,2.85,1.87,2.92,2.92,0,0,1,3.35.12,3,3,0,0,1,1,3.23,2.77,2.77,0,0,1,1.22,5.38l-16-1.93A2.85,2.85,0,0,1,342.16,187.55Z" style="fill:#263238"></path><path d="M360.51,192.4a11.72,11.72,0,0,0-15.13-4.91l-.55.25c-5.77,3.1-5.09,9.45-1.82,15.16l10.77,21.87h0L367,228.59l.06-5.4L364.9,215s5.28-3.53,2.69-9.29C366.34,202.88,363.31,197.36,360.51,192.4Z" style="fill:#ffbf9d"></path><path d="M364.94,214.93a15.12,15.12,0,0,1-8.48,1.26s3.46,3.72,8.91.57Z" style="fill:#ff9a6c"></path><path d="M361.13,198.16a.9.9,0,0,1-.4,1.19.87.87,0,0,1-1.18-.35.91.91,0,0,1,.4-1.19A.85.85,0,0,1,361.13,198.16Z" style="fill:#263238"></path><path d="M360.78,196c0,.15-.88,0-1.76.39s-1.31,1.14-1.45,1.08-.06-.27.13-.6a2.47,2.47,0,0,1,1.1-1,2.31,2.31,0,0,1,1.46-.17C360.63,195.81,360.81,196,360.78,196Z" style="fill:#263238"></path><path d="M353.65,201.86a.91.91,0,0,1-.4,1.19.85.85,0,0,1-1.18-.35.89.89,0,0,1,.4-1.19A.87.87,0,0,1,353.65,201.86Z" style="fill:#263238"></path><path d="M352.35,199.79c-.05.15-.88,0-1.75.39s-1.32,1.14-1.46,1.08-.06-.27.13-.6a2.47,2.47,0,0,1,1.1-1,2.31,2.31,0,0,1,1.46-.17C352.2,199.57,352.38,199.72,352.35,199.79Z" style="fill:#263238"></path><path d="M358.26,205a5.93,5.93,0,0,1,1.3-.92c.21-.13.4-.27.37-.44s-.23-.39-.46-.6l-1.45-1.4a32.39,32.39,0,0,1-3.56-3.79,33.17,33.17,0,0,1,3.85,3.49l1.43,1.43a1.52,1.52,0,0,1,.53.83.65.65,0,0,1-.22.5,1.89,1.89,0,0,1-.35.23A6.37,6.37,0,0,1,358.26,205Z" style="fill:#263238"></path><path d="M356,206.78c.14-.07.59.88,1.71,1.18s2.09-.27,2.16-.14-.14.29-.56.5a2.56,2.56,0,0,1-1.78.17,2.29,2.29,0,0,1-1.37-1C355.9,207.09,355.9,206.8,356,206.78Z" style="fill:#263238"></path><path d="M351.2,197.27c0,.28-.85.42-1.76.86s-1.58,1-1.78.8,0-.37.19-.71a3.06,3.06,0,0,1,1.2-1,2.91,2.91,0,0,1,1.5-.28C351,197,351.19,197.14,351.2,197.27Z" style="fill:#263238"></path><path d="M359.46,193.71c0,.27-.73.4-1.43.79s-1.21.86-1.46.73-.13-.31,0-.63a2.34,2.34,0,0,1,2.32-1.23C359.28,193.43,359.47,193.58,359.46,193.71Z" style="fill:#263238"></path><path d="M358.74,190s-3.17-2.89-5.27-2.93c-2.56,0-2.39,2.67-4.63,3s-4.68.31-6,2.8c-1.44,2.71.15,3.42,1.19,6,4.22,10.56,3.7,14.35.92,9.74-.3-.51-2-.25-3.23-2.39-1.63-2.79-3.38-6.27-3.69-8.64a9,9,0,0,1,1.32-5.81c1.83-3.39,5.65-5.21,8.38-6.16S356.89,185.42,358.74,190Z" style="fill:#263238"></path><path d="M346,208a1.7,1.7,0,0,0-2.36-.72c-1,.59-1.92,1.75-.82,3.92,1.94,3.86,5.39,1.12,5.34,1S346.8,209.63,346,208Z" style="fill:#ffbf9d"></path><path d="M346.57,211.2s-.05.08-.13.19a.77.77,0,0,1-.5.26,1.85,1.85,0,0,1-1.51-1.11,2.33,2.33,0,0,1-.3-1,.87.87,0,0,1,.24-.77.39.39,0,0,1,.49,0c.1.09.12.17.14.17s.05-.1-.06-.25a.4.4,0,0,0-.27-.16.58.58,0,0,0-.42.08,1.06,1.06,0,0,0-.4,1,2.52,2.52,0,0,0,.31,1.19,2,2,0,0,0,1.81,1.18.77.77,0,0,0,.56-.41C346.61,211.3,346.58,211.2,346.57,211.2Z" style="fill:#ff9a6c"></path><path d="M341.81,200.73a4.1,4.1,0,0,0,2,0,1.4,1.4,0,0,0,1-1.55c-.08-.29-.3-.58-.22-.87s.53-.45.87-.57a2.73,2.73,0,0,0,1.75-3,1.14,1.14,0,0,0,1.46-.52,6,6,0,0,0,.53-1.63,1.76,1.76,0,0,1,1-1.29,4.18,4.18,0,0,0,.93-.21c.49-.28.46-1,.3-1.54a2.07,2.07,0,0,1-.07-1.65c.28-.44.87-.54,1.37-.68s1.06-.55,1-1.06a1,1,0,0,0-.5-.63,2.77,2.77,0,0,0-3.43.42,3.75,3.75,0,0,0-6.58,2.24,3.87,3.87,0,0,0-3.48.62,3.91,3.91,0,0,0-1.48,3.22,2.84,2.84,0,0,0-2.21,2.12,2.88,2.88,0,0,0,1.08,2.88,2.63,2.63,0,0,0-.42,2.52,1.5,1.5,0,0,0,2.19.69,1.61,1.61,0,0,0,1.41,1.58,1.59,1.59,0,0,0,1.65-1.3" style="fill:#263238"></path><path d="M338.62,200.37s.08.36.59.64a1.4,1.4,0,0,0,1,.11,1.49,1.49,0,0,0,1-.84l-.17.05a4.16,4.16,0,0,0,1.23.61,2.38,2.38,0,0,0,.91.12,1.68,1.68,0,0,0,.82-.29,1.65,1.65,0,0,0,.82-1.17,2.49,2.49,0,0,0-.06-1c0-.22-.1-.33-.12-.33a1.52,1.52,0,0,0,0,.35,2.83,2.83,0,0,1,0,.91,1.75,1.75,0,0,1-2.31,1.14,4.9,4.9,0,0,1-1.17-.57l-.12-.09-.05.14a1.3,1.3,0,0,1-.8.73,1.24,1.24,0,0,1-.88,0A2.06,2.06,0,0,1,338.62,200.37Z" style="fill:#455a64"></path><path d="M341.83,188s.11,0,.32,0a1.4,1.4,0,0,1,.84.23l.08.06,0-.1a5.44,5.44,0,0,1,1.18-2.41,4.07,4.07,0,0,1,1.37-1.05,3.54,3.54,0,0,1,1.87-.29,3.63,3.63,0,0,1,1.42.48,3,3,0,0,1,1,1l.07.11.1-.08a2.33,2.33,0,0,1,1.71-.55,2.28,2.28,0,0,1,1.33.54,3.26,3.26,0,0,1,.78,1.05.9.9,0,0,0-.1-.35,2.48,2.48,0,0,0-2-1.44,2.56,2.56,0,0,0-1.87.57l.17,0a3.15,3.15,0,0,0-1.05-1.07,3.73,3.73,0,0,0-3.51-.2,4.42,4.42,0,0,0-1.44,1.12,5.33,5.33,0,0,0-1.14,2.53l.1,0a1.44,1.44,0,0,0-.92-.19C341.93,188,341.82,188,341.83,188Z" style="fill:#455a64"></path><path d="M357.59,369l-2.13,10.72,0,2.48s6.86,13.27,5.28,15.18L341,378.7l3-3.2,1.92-10.66Z" style="fill:#455a64"></path><path d="M341,378.7l1.48-1.47,18.43,18.46s.54,1.2-.12,1.69Z" style="fill:#263238"></path><path d="M355.89,382.41c-.08.09-.61-.33-1.36-.48s-1.37,0-1.42-.13.58-.51,1.49-.31S356,382.35,355.89,382.41Z" style="fill:#263238"></path><path d="M357.2,385.19c-.06.11-.62-.13-1.32-.06s-1.17.4-1.26.31.33-.67,1.2-.75S357.28,385.1,357.2,385.19Z" style="fill:#263238"></path><path d="M356.17,388.66c-.11-.06.19-.65.91-.92s1.36,0,1.33.07-.57.12-1.15.35S356.27,388.74,356.17,388.66Z" style="fill:#263238"></path><path d="M378.1,331l-9.79,8.39s5.74,13.3,4.09,15L354.51,335l14.68-13.74Z" style="fill:#455a64"></path><path d="M363.58,332.62a1,1,0,0,0-1.36.24,1,1,0,0,0,.3,1.38A1.08,1.08,0,0,0,364,334a1.09,1.09,0,0,0-.47-1.4" style="fill:#e0e0e0"></path><path d="M354.51,335l1.54-1.33,16.57,19.09s.45,1.2-.22,1.63Z" style="fill:#263238"></path><path d="M368.7,339.58c-.09.08-.57-.36-1.29-.55s-1.32-.1-1.37-.22.6-.46,1.47-.21S368.8,339.52,368.7,339.58Z" style="fill:#263238"></path><path d="M369.78,342.35c-.07.1-.6-.17-1.28-.14s-1.16.31-1.24.21.37-.62,1.21-.64S369.86,342.27,369.78,342.35Z" style="fill:#263238"></path><path d="M368.54,345.64c-.1-.07.23-.61.94-.83s1.32.05,1.28.16-.55.08-1.13.27S368.64,345.73,368.54,345.64Z" style="fill:#263238"></path><path d="M370.7,337.41c-.12,0-.39-.52-.92-1s-1.07-.77-1-.89.72,0,1.33.58S370.82,337.39,370.7,337.41Z" style="fill:#263238"></path><path d="M352.07,285.69s3.14,11.93,9.62,14.52S391,313,391,313l-28.6,13.09,5.93,13.3s39.36-14.84,43.87-17.81,5.85-12.29.43-17.08c-2.73-2.41-30.47-25.68-30.47-25.68l-2.65-7.53-23.89-2.88Z" style="fill:#263238"></path><path d="M368.3,339.35a1.09,1.09,0,0,1-.12-.23l-.33-.68c-.28-.63-.69-1.51-1.21-2.64l-4.38-9.7-.05-.11.11-.05,26.1-12,2.48-1.14v.3c-5.15-2.37-10-4.58-14.48-6.56l-6.31-2.77c-2-.86-3.85-1.6-5.47-2.47a32.32,32.32,0,0,1-7-5,21.32,21.32,0,0,1-1.61-1.7c-.17-.21-.29-.37-.37-.48l-.12-.17s.05,0,.14.15.22.26.4.45c.36.4.9,1,1.65,1.66a33,33,0,0,0,7.06,4.87c1.61.85,3.48,1.57,5.46,2.42s4.1,1.76,6.33,2.75c4.45,2,9.35,4.17,14.5,6.53l.32.15-.32.15-2.48,1.14-26.14,11.91.06-.16,4.29,9.74,1.15,2.67.29.69A1.23,1.23,0,0,1,368.3,339.35Z" style="fill:#455a64"></path><path d="M399.28,311.67c0,.1-1.89.05-4.17.41s-4.08,1-4.11.88a3.75,3.75,0,0,1,1.14-.5,17.56,17.56,0,0,1,2.91-.7,17.36,17.36,0,0,1,3-.21A3.85,3.85,0,0,1,399.28,311.67Z" style="fill:#455a64"></path><path d="M386.51,286.58c-.17,1.21-14,43.2-17.78,48.45s-11.43,42.24-11.43,42.24-15.09-2.93-15.2-2.15,3.25-25.53,6.43-36.82,4.87-15.77,4.87-15.77l3.35-33.67s-4-7.77-3.6-12.09a30.67,30.67,0,0,1,2.67-8.89Z" style="fill:#263238"></path><path d="M382.05,282.12a5.92,5.92,0,0,1,.14,1.25c.05.81.1,2,.08,3.43A88.64,88.64,0,0,1,379,309.15c-.41,1.39-.77,2.51-1.05,3.27a5.22,5.22,0,0,1-.49,1.16,6.66,6.66,0,0,1,.3-1.22c.22-.78.53-1.91.88-3.3a110,110,0,0,0,2.2-11.05,105.85,105.85,0,0,0,1.08-11.21c.06-1.45.08-2.61.09-3.42A5.23,5.23,0,0,1,382.05,282.12Z" style="fill:#455a64"></path><path d="M364,295.16a10.37,10.37,0,0,1,1.89,1.68,29.3,29.3,0,0,1,1.66,3.94s-.55.63-1.85-1a16.62,16.62,0,0,1-1.71-2.47Z" style="fill:#ffbf9d"></path><path d="M366.22,301.09,364,295.22l-4-3.4-7.17,2.7,2.56,7.15a22.86,22.86,0,0,0,3,3c.73.37,1.56-.45,1.56-.45.87.63,2.22-.27,2.22-.27,1.07.57,1.87-.69,1.87-.69s1.35.51,1.78.27a1,1,0,0,0,.36-.49A2.73,2.73,0,0,0,366.22,301.09Z" style="fill:#ffbf9d"></path><path d="M358.85,302.91c.06-.05.35.19.65.54s.49.68.43.73-.34-.19-.65-.55S358.79,303,358.85,302.91Z" style="fill:#ff9a6c"></path><path d="M360.66,302.09c.07,0,.38.4.8.93s.77.94.72,1-.51-.28-.94-.83S360.59,302.12,360.66,302.09Z" style="fill:#ff9a6c"></path><path d="M362.84,301.44c.07,0,.3.39.62.88s.59.89.53.94-.44-.27-.77-.79S362.77,301.46,362.84,301.44Z" style="fill:#ff9a6c"></path><path d="M364.68,297.08a10.77,10.77,0,0,1,1,2.18,10.39,10.39,0,0,1,.72,2.26,10.21,10.21,0,0,1-1-2.17A9.76,9.76,0,0,1,364.68,297.08Z" style="fill:#ff9a6c"></path><path d="M358.28,301.78s0,.12-.08.25a.9.9,0,0,1-.53.31.84.84,0,0,1-.6-.12c-.13-.08-.18-.17-.16-.2s.35.11.71,0S358.21,301.74,358.28,301.78Z" style="fill:#ff9a6c"></path><path d="M360.57,301.27s0,.13-.12.25a1,1,0,0,1-.58.31,1.09,1.09,0,0,1-.65-.08c-.15-.08-.21-.17-.19-.2s.37.09.79,0S360.5,301.23,360.57,301.27Z" style="fill:#ff9a6c"></path><path d="M364.51,299.2s.23.1.16.41a1.39,1.39,0,0,1-.7.77,1.7,1.7,0,0,1-1,.15c-.26,0-.39-.15-.38-.18a3.41,3.41,0,0,0,1.27-.22,1.54,1.54,0,0,0,.64-.58C364.57,299.36,364.48,299.23,364.51,299.2Z" style="fill:#ff9a6c"></path><path d="M393.86,176.14s2.18-6.58,2.23-7.58-.43-3.19-1.19-3.72a2,2,0,0,0-2.3-.11,1.86,1.86,0,0,0-1.65-1.51,1,1,0,0,0-1.28,1.16,1.21,1.21,0,0,0-1.06-1.14,1.8,1.8,0,0,0-1.06.26s-1.45-1.08-2.28-.26,1.23,12.27,1.23,12.27Z" style="fill:#ffbf9d"></path><path d="M386.2,174.2s-2.83-4-2.92-5.16,1.06-3.89,1.79-4.29,3.71-1.35,3.71-1.35,1.35,1.06-.38,2.37l-2,1.38s3.48.83,3.67,4.29" style="fill:#ffbf9d"></path><path d="M390.06,171.44a7.62,7.62,0,0,0-.45-1.57,4.47,4.47,0,0,0-1.13-1.46,5.49,5.49,0,0,0-2.12-1.12l-.29-.08.24-.17,2-1.42a2,2,0,0,0,.75-1,1.13,1.13,0,0,0-.41-1.1l.15,0-1.58.53c-.43.15-.84.29-1.25.45l-.6.24a2.24,2.24,0,0,0-.27.13.67.67,0,0,0-.2.18,6.88,6.88,0,0,0-1.12,2.08,7.55,7.55,0,0,0-.31,1.07,2.14,2.14,0,0,0,0,1,9,9,0,0,0,.78,1.71c.58,1,1.09,1.82,1.44,2.38a6.48,6.48,0,0,1,.52.87,4.63,4.63,0,0,1-.63-.8c-.38-.54-.92-1.32-1.53-2.34a8.74,8.74,0,0,1-.85-1.76,2.49,2.49,0,0,1,0-1.12,7.67,7.67,0,0,1,.31-1.11,7,7,0,0,1,1.16-2.2,1.31,1.31,0,0,1,.28-.24,2.1,2.1,0,0,1,.3-.15l.61-.25c.41-.16.83-.3,1.26-.45l1.59-.53.09,0,.06.06a1.42,1.42,0,0,1,.52,1.43,2.32,2.32,0,0,1-.87,1.15l-2.06,1.41-.05-.25a5.53,5.53,0,0,1,2.21,1.22,4.42,4.42,0,0,1,1.13,1.57,3.7,3.7,0,0,1,.21.68,2.2,2.2,0,0,1,.08.51C390.08,171.29,390.08,171.44,390.06,171.44Z" style="fill:#ff9a6c"></path><path d="M389.43,164.46a11.08,11.08,0,0,0,0,3.81,1.91,1.91,0,0,0,.52,1.17,1.27,1.27,0,0,0,1.16.22,2,2,0,0,0,1-.7" style="fill:#ffbf9d"></path><path d="M392.08,169s-.16.45-.84.77a1.45,1.45,0,0,1-1.29-.08,1.9,1.9,0,0,1-.72-1.38,7.36,7.36,0,0,1,.2-3.81,21.85,21.85,0,0,0,.13,3.75,1.7,1.7,0,0,0,.56,1.19,1.21,1.21,0,0,0,1,.11A5.11,5.11,0,0,0,392.08,169Z" style="fill:#ff9a6c"></path><path d="M386.93,167a2.53,2.53,0,0,0,0,1.39,1.41,1.41,0,0,0,1.08,1.25c.49.07,1.05-.62,1.27-1.31" style="fill:#ffbf9d"></path><path d="M389.3,168.31s0,.31-.23.74a1.68,1.68,0,0,1-.6.63.8.8,0,0,1-.57.08,1.27,1.27,0,0,1-.53-.27,1.72,1.72,0,0,1-.54-.93c-.05-.33-.08-.58-.1-.83,0-.5.17-.77.2-.75s0,.3,0,.73c.06.27.11.53.17.78a1.5,1.5,0,0,0,.46.75,1.11,1.11,0,0,0,.38.21.5.5,0,0,0,.36,0,1.75,1.75,0,0,0,.55-.49C389.15,168.56,389.25,168.29,389.3,168.31Z" style="fill:#ff9a6c"></path><path d="M392.83,164.78a6.59,6.59,0,0,0-1.23,2.78A1.5,1.5,0,0,0,392,169a1.33,1.33,0,0,0,1.55-.2,3.11,3.11,0,0,0,1.21-2.16" style="fill:#ffbf9d"></path><path d="M394.71,166.68a2,2,0,0,1-.29,1.28,3.07,3.07,0,0,1-1,1.1,1.81,1.81,0,0,1-.85.31,1,1,0,0,1-.94-.38,1.55,1.55,0,0,1-.27-1,3.77,3.77,0,0,1,.14-.86,5.43,5.43,0,0,1,.52-1.34,3.12,3.12,0,0,1,.78-1.06c.05,0-.25.44-.57,1.16a6.68,6.68,0,0,0-.44,1.31,4.17,4.17,0,0,0-.1.79,1.2,1.2,0,0,0,.2.75c.32.41,1,.27,1.36,0a3.16,3.16,0,0,0,.94-1A7.56,7.56,0,0,0,394.71,166.68Z" style="fill:#ff9a6c"></path><path d="M365.37,220.39a45.45,45.45,0,0,1,2.67-6.32c.93-1.34,13.52-11.64,13.92-14.74.45-3.47,4.47-24,4.42-23.59s9.48-.82,9.48-.82-.82,23.29-1.11,27.4c-.48,6.54-13.54,20-15.22,24.12-1.41,3.44-.39,13.64-.39,13.64Z" style="fill:#e0e0e0"></path><path d="M378.68,226.93l-1.09-1.72-10.07-4.84a46.13,46.13,0,0,0-5.93-2,43.78,43.78,0,0,0-7.45-1.21l-4,.28.51,2.77,10,5.13-8,32.32.81,17.68,28.35,2.48s2.25-.84,2.25-5.48Z" style="fill:#e0e0e0"></path><path d="M364.82,235.64c-1.64,4-12.19,28-12.19,28s10,27.93,9.53,28.25-10.76,3.48-10.76,3.48-13-28.62-13.22-32.42,6.91-29.18,7.07-29.71.68-4.2,5.77-7.92c6-4.36,10-2.29,12.46.54,2.09,2.43,2,7.54,1.58,9.08C365,235.17,364.91,235.41,364.82,235.64Z" style="fill:#e0e0e0"></path><path d="M377.7,221.6a17.13,17.13,0,0,1,1.38,5.59,35.57,35.57,0,0,1,.37,5.73,28.7,28.7,0,0,1-.88-5.67C378.21,224.12,377.54,221.64,377.7,221.6Z" style="fill:#263238"></path><path d="M351.4,295.36a4.31,4.31,0,0,1,.73-.29l2.13-.75,7.84-2.62-.13.24L354.82,271l-2.45-7.28,0-.09,0-.08c2.45-6.95,4.25-13.14,5.6-17.52.65-2.15,1.18-3.89,1.56-5.16.18-.56.32-1,.44-1.38a1.82,1.82,0,0,1,.18-.47,2.46,2.46,0,0,1-.1.5c-.09.37-.2.83-.35,1.4-.32,1.22-.79,3-1.42,5.2-1.26,4.41-3,10.61-5.44,17.6v-.17c.78,2.32,1.61,4.77,2.47,7.28l7,21,.07.19-.19.06-7.9,2.46-2.16.65A3.61,3.61,0,0,1,351.4,295.36Z" style="fill:#263238"></path><path d="M381.86,277.85a1.77,1.77,0,0,1-.06-.51c0-.39-.05-.86-.08-1.44-.06-1.25-.14-3.06-.27-5.3-.26-4.47-.74-10.64-1.69-17.4s-2.18-12.83-3.19-17.19c-.51-2.18-.94-3.95-1.25-5.16-.13-.56-.25-1-.34-1.4a1.71,1.71,0,0,1-.08-.5,1.63,1.63,0,0,1,.18.47l.44,1.38c.37,1.2.85,2.95,1.41,5.12a160.63,160.63,0,0,1,3.34,17.21,170.28,170.28,0,0,1,1.54,17.46c.09,2.24.12,4.05.11,5.31,0,.58,0,1.05,0,1.44A1.88,1.88,0,0,1,381.86,277.85Z" style="fill:#263238"></path><path d="M350.4,219.8l15.82.21-.34-1.3s4.83.07,4.14,3.43c-.41,2-19.26,2.59-22.92,6.83C347.27,226.28,348.3,222.31,350.4,219.8Z" style="fill:#FF725E"></path><path d="M370.72,221.19a2,2,0,0,0-1.87-1.78,2.32,2.32,0,0,0-2.28,1.18,2.25,2.25,0,0,0,.34,2.54,2.21,2.21,0,0,0,2.51.46A2.48,2.48,0,0,0,370.72,221.19Z" style="fill:#FF725E"></path><path d="M369.13,222.41a1.05,1.05,0,0,1,.31,0,4.92,4.92,0,0,1,.9,0,8.76,8.76,0,0,1,3.16,1c.32.17.64.35,1,.55a2.51,2.51,0,0,1,.93.86,1.17,1.17,0,0,1-.11,1.43,1.62,1.62,0,0,1-1.45.44,12.38,12.38,0,0,1-5.07-3.42l.42-.29.32.72a9.27,9.27,0,0,1,.89,3.23,4.29,4.29,0,0,1-.89,3,1.53,1.53,0,0,1-1.46.62,1,1,0,0,1-.69-.48,1.84,1.84,0,0,1-.21-.71,12.34,12.34,0,0,1,0-2.45,11.73,11.73,0,0,1,.9-3.38,4,4,0,0,1,.62-1.13,17.77,17.77,0,0,0-1.16,4.55,13.29,13.29,0,0,0,0,2.35c.05.41.21.76.56.8a1,1,0,0,0,1-.48,3.88,3.88,0,0,0,.76-2.69,9.23,9.23,0,0,0-.86-3l-.32-.72-.56-1.26,1,1a20.55,20.55,0,0,0,2.32,2,7.3,7.3,0,0,0,2.46,1.29,1.12,1.12,0,0,0,1-.28A.73.73,0,0,0,375,225a2.35,2.35,0,0,0-.79-.74c-.31-.21-.62-.39-.92-.56A10.56,10.56,0,0,0,369.13,222.41Z" style="fill:#FF725E"></path><path d="M367.74,223.58c0,.06-.44,0-.91-.45a2.35,2.35,0,0,1,1.33-4c.65-.08,1,.13,1,.19s-.39,0-.93.17a2.14,2.14,0,0,0-1.13,3.38C367.44,223.34,367.78,223.51,367.74,223.58Z" style="fill:#263238"></path><path d="M365.8,222.83c0,.15-2.75.13-6.12.32s-6.1.51-6.12.36a23.92,23.92,0,0,1,6.09-.88A24.39,24.39,0,0,1,365.8,222.83Z" style="fill:#263238"></path><path d="M364.93,222a10.92,10.92,0,0,1-3.38-.16,11.37,11.37,0,0,1-3.32-.67,10.92,10.92,0,0,1,3.38.16A11.37,11.37,0,0,1,364.93,222Z" style="fill:#263238"></path><g style="opacity:0.30000000000000004"><path d="M355.39,262.49a23.34,23.34,0,0,1,1.14-4.42,61.24,61.24,0,0,0,2.76-16.18c-1.85,6.14-3.7,12.27-5.82,18.32a9.72,9.72,0,0,0-.73,3.56l3.94,11.92h.23C357.46,271.27,354.91,266.91,355.39,262.49Z"></path></g><path d="M334.79,441c-.15,0-.26-7.08-.26-15.81s.11-15.8.26-15.8.26,7.07.26,15.8S334.93,441,334.79,441Z" style="fill:#263238"></path><path d="M345.56,473c-.15,0-.26-14.31-.26-32s.11-32,.26-32,.26,14.31.26,32S345.7,473,345.56,473Z" style="fill:#263238"></path></g><g id="freepik--character-2--inject-76"><path d="M273.42,70.3s.21-7.11,0-8.11-1.36-3-2.27-3.3a2,2,0,0,0-2.28.57,1.92,1.92,0,0,0-2.08-1,1.06,1.06,0,0,0-.91,1.52,1.24,1.24,0,0,0-1.38-.81,1.82,1.82,0,0,0-1,.56s-1.74-.63-2.32.42S266,71.85,266,71.85Z" style="fill:#ae7461"></path><path d="M265.32,70.65s-4-3.1-4.39-4.21-.1-4.13.51-4.74,3.24-2.42,3.24-2.42,1.63.64.32,2.44l-1.57,2s3.66-.21,4.88,3.13" style="fill:#ae7461"></path><path d="M268.31,66.8a9.31,9.31,0,0,0-.91-1.41,4.89,4.89,0,0,0-1.54-1.11,5.87,5.87,0,0,0-2.42-.47h-.31l.19-.24,1.58-2a2,2,0,0,0,.44-1.18,1.12,1.12,0,0,0-.72-1l.16,0-1.41,1-1.09.8c-.17.14-.35.27-.51.41a2.4,2.4,0,0,0-.23.21,1,1,0,0,0-.15.24,7,7,0,0,0-.48,2.37,8.82,8.82,0,0,0,0,1.15,2.53,2.53,0,0,0,.25,1A10.18,10.18,0,0,0,262.44,68c.86.83,1.61,1.47,2.11,1.91a6.47,6.47,0,0,1,.77.71,5.38,5.38,0,0,1-.85-.6c-.54-.42-1.3-1-2.19-1.85a9.44,9.44,0,0,1-1.36-1.48,2.56,2.56,0,0,1-.3-1.11,7.71,7.71,0,0,1,0-1.18,7.4,7.4,0,0,1,.49-2.51,1.41,1.41,0,0,1,.21-.31,1.88,1.88,0,0,1,.25-.24c.17-.15.35-.28.53-.42.35-.28.72-.55,1.1-.82l1.41-1,.07,0,.09,0a1.49,1.49,0,0,1,.92,1.27,2.33,2.33,0,0,1-.51,1.38l-1.62,2-.12-.23a5.76,5.76,0,0,1,2.53.54,4.75,4.75,0,0,1,1.57,1.21,3.62,3.62,0,0,1,.41.61,2.67,2.67,0,0,1,.24.48A2.5,2.5,0,0,1,268.31,66.8Z" style="fill:#6f4439"></path><path d="M265.63,60.12a11.15,11.15,0,0,0,1.09,3.76,2,2,0,0,0,.85,1,1.27,1.27,0,0,0,1.21-.12,2.15,2.15,0,0,0,.78-1" style="fill:#ae7461"></path><path d="M269.56,63.77s0,.49-.6,1a1.48,1.48,0,0,1-1.29.31,2,2,0,0,1-1.11-1.15,7.46,7.46,0,0,1-.93-3.81,21.43,21.43,0,0,0,1.23,3.66,1.73,1.73,0,0,0,.9,1,1.25,1.25,0,0,0,1.05-.2A4.46,4.46,0,0,0,269.56,63.77Z" style="fill:#6f4439"></path><path d="M263.91,63.34a2.69,2.69,0,0,0,.43,1.36,1.46,1.46,0,0,0,1.43.91c.5-.07.85-.92.87-1.66" style="fill:#ae7461"></path><path d="M266.64,64s.1.3,0,.79a1.85,1.85,0,0,1-.41.8.79.79,0,0,1-.54.25,1.35,1.35,0,0,1-.59-.11,1.77,1.77,0,0,1-.81-.76,7.82,7.82,0,0,1-.34-.79c-.16-.48-.06-.8,0-.79s.06.3.25.7l.39.72a1.56,1.56,0,0,0,.68.61,1.11,1.11,0,0,0,.43.09.5.5,0,0,0,.34-.14,1.74,1.74,0,0,0,.4-.65C266.56,64.24,266.58,64,266.64,64Z" style="fill:#6f4439"></path><path d="M269.07,59.44a6.64,6.64,0,0,0-.39,3.09,1.52,1.52,0,0,0,.77,1.36,1.38,1.38,0,0,0,1.47-.65,3.24,3.24,0,0,0,.55-2.49" style="fill:#ae7461"></path><path d="M271.47,60.75a2,2,0,0,1,.09,1.35,3.1,3.1,0,0,1-.63,1.37,1.89,1.89,0,0,1-.74.55,1.06,1.06,0,0,1-1-.1,1.54,1.54,0,0,1-.55-.85,4.12,4.12,0,0,1-.12-.89,6,6,0,0,1,.12-1.47,2.88,2.88,0,0,1,.46-1.27c.05,0-.13.5-.23,1.31a7.17,7.17,0,0,0,0,1.42,3.9,3.9,0,0,0,.13.81,1.27,1.27,0,0,0,.42.67c.44.31,1,0,1.34-.39a3,3,0,0,0,.64-1.21A8,8,0,0,0,271.47,60.75Z" style="fill:#6f4439"></path><path d="M256.21,122.15A44.45,44.45,0,0,1,259,116c1-1.3,5.42-14.81,5.26-17.83s-.37-27.73-.43-27.38,11.48-2,11.48-2,1.86,27.84,2,31.05c.28,5.81-4.3,19.64-6.79,27.83-1.06,3.49-.61,13.13-.61,13.13Z" style="fill:#263238"></path><path d="M269.29,132.32a11.49,11.49,0,0,1-1.08-1.81c-.61-1.14-1.41-2.76-2.18-4.59s-1.36-3.53-1.75-4.77a12.29,12.29,0,0,1-.53-2,13.7,13.7,0,0,1,.76,2c.44,1.22,1.07,2.89,1.84,4.72s1.51,3.45,2.07,4.62A16.66,16.66,0,0,1,269.29,132.32Z" style="fill:#455a64"></path><path d="M255.46,106.57c-.56-9.35-2.06-19.68-15.34-19.84,0,0-10-.16-13.52,6.77-1.74,3.41-4.37,15.63-5.89,26.83-1,3.8-2.16,7.63-4.85,10.43a25.73,25.73,0,0,1-5.56,4,24,24,0,0,0-5.52,4,8.27,8.27,0,0,0-2.45,6.2,5.18,5.18,0,0,0,3.71,4.55,5.77,5.77,0,0,0-1.1,2.49,4.65,4.65,0,0,0,6.95,4.74c-1,3.83,2.37,7.87,6.28,8.43s7.83-1.78,10-5.08a18.53,18.53,0,0,0,2.73-8.8,9.49,9.49,0,0,0,4.67-.48,30,30,0,0,0,19.2-17l2.5-.73S255.81,112.38,255.46,106.57Z" style="fill:#263238"></path><path d="M235.72,90l-1.13-.2L230.32,96c-1,.78-1.46,4-.77,5.14l15.86,23.63c1.08,1.66,1.66,3.39,3.52,4l2,.68a6.59,6.59,0,0,0,8.8-6.68,3.46,3.46,0,0,0-.15-.8,6.62,6.62,0,0,0-.25-.62c-1.08-2.1-2.19-3.81-2.19-3.81-1.29-2.23-1.84-3.14-1.82-3.12s4.22-3.56,1.56-10.24c-1.33-3.32-4.1-7.26-6.9-11.09C246.08,87.83,240.1,87.05,235.72,90Z" style="fill:#ae7461"></path><path d="M243.61,102.74a.91.91,0,0,1-.29,1.24.88.88,0,0,1-1.23-.22.91.91,0,0,1,.29-1.24A.88.88,0,0,1,243.61,102.74Z" style="fill:#263238"></path><path d="M251.31,97.91a.9.9,0,0,1-.29,1.23.87.87,0,0,1-1.22-.22.92.92,0,0,1,.28-1.24A.87.87,0,0,1,251.31,97.91Z" style="fill:#263238"></path><path d="M249.94,95.24c0,.16-.89.08-1.73.58s-1.21,1.29-1.36,1.24-.08-.26.07-.61A2.49,2.49,0,0,1,249.39,95C249.77,95,250,95.17,249.94,95.24Z" style="fill:#263238"></path><path d="M242,100.69c0,.16-.89.07-1.74.56s-1.22,1.28-1.37,1.23-.08-.26.07-.62a2.59,2.59,0,0,1,1-1.11,2.43,2.43,0,0,1,1.46-.31C241.84,100.48,242,100.62,242,100.69Z" style="fill:#263238"></path><path d="M248.9,105.21a6.4,6.4,0,0,1,1.22-1.06c.2-.15.38-.32.33-.49s-.27-.36-.52-.55l-1.61-1.26a34,34,0,0,1-4-3.43,31.4,31.4,0,0,1,4.25,3.1l1.59,1.29a1.48,1.48,0,0,1,.61.78.61.61,0,0,1-.17.52,1.51,1.51,0,0,1-.33.27A7.19,7.19,0,0,1,248.9,105.21Z" style="fill:#263238"></path><path d="M255.28,114.45a18,18,0,0,1-9.48,2.68s4.57,3,10.34-1.2Z" style="fill:#6f4439"></path><path d="M248.93,106.62a2.27,2.27,0,0,0-1.49.53h0a1.4,1.4,0,0,0-.39,1.72,1.76,1.76,0,0,0,.8.9,2.36,2.36,0,0,0,1.91-.42,1.63,1.63,0,0,0,.53-1.5A1.55,1.55,0,0,0,248.93,106.62Z" style="fill:#6f4439"></path><path d="M246.77,107.26c.13-.09.68.83,1.84,1s2.09-.49,2.17-.37-.11.31-.52.56a2.55,2.55,0,0,1-1.77.36,2.25,2.25,0,0,1-1.49-.88C246.73,107.58,246.7,107.3,246.77,107.26Z" style="fill:#263238"></path><path d="M240.73,97.76c0,.29-.92.58-1.9,1.19s-1.7,1.29-1.94,1.14-.07-.37.16-.77A3.93,3.93,0,0,1,240,97.55C240.43,97.53,240.71,97.63,240.73,97.76Z" style="fill:#263238"></path><path d="M247.55,91.77c0,.27-.73.42-1.43.83s-1.21.89-1.47.77-.14-.31,0-.64a2.45,2.45,0,0,1,2.34-1.3C247.37,91.48,247.56,91.63,247.55,91.77Z" style="fill:#263238"></path><path d="M235.66,111.68s5-1.47.55-13.35c-1.53-4.06-.16-9.08-.16-9.08l-1.59.48s-6.69,7.79-6.76,8,.75,5.64.75,5.64Z" style="fill:#263238"></path><path d="M236.9,110c-.27-.46-1.43-1.22-1.92-1-1.31.52-3.42,1.91-1.63,5,2.45,4.18,6.14.86,6.08.74S237.84,111.59,236.9,110Z" style="fill:#ae7461"></path><path d="M237.22,113.87s0,.1-.13.23a.88.88,0,0,1-.54.33,2.12,2.12,0,0,1-1.78-1.13,2.87,2.87,0,0,1-.4-1.16,1,1,0,0,1,.22-.88.43.43,0,0,1,.54-.06c.13.09.15.19.18.18s.05-.12-.09-.27a.47.47,0,0,0-.32-.17.63.63,0,0,0-.46.13,1.17,1.17,0,0,0-.38,1.09,2.94,2.94,0,0,0,.43,1.32,2.2,2.2,0,0,0,2.12,1.18,1,1,0,0,0,.6-.5C237.28,114,237.24,113.87,237.22,113.87Z" style="fill:#6f4439"></path><path d="M243.09,128.67a2,2,0,0,1-.17-.17l-.48-.5-1.82-2,.09-.07.38.43h0l.2.12-.08.1a47,47,0,0,1-8.62-9.65,22.68,22.68,0,0,1-2.66-4.86,8.56,8.56,0,0,1-.48-2.32,12.44,12.44,0,0,1,.08-2.29c.19-1.49.53-2.89.8-4.23.57-2.68,1.07-5.09,1.5-7.13s.78-3.65,1-4.8c.12-.55.22-1,.29-1.3,0-.14.06-.25.08-.34s0-.11,0-.11a.56.56,0,0,1,0,.12c0,.09,0,.2-.06.34-.06.31-.14.75-.25,1.31-.23,1.15-.55,2.79-1,4.81s-.9,4.46-1.45,7.14c-.26,1.34-.6,2.75-.78,4.22a9.5,9.5,0,0,0,.39,4.5,23.45,23.45,0,0,0,2.62,4.82,49.38,49.38,0,0,0,8.54,9.68l-.08.1-.2-.13h0l-.38-.44.09-.08,1.77,2,.46.52Z" style="fill:#455a64"></path><path d="M261.22,205.58c1.21-12.46,5.23-24.51,7.59-36.82s3-25.4-2.39-37l-24.76-10.17c-10.6,4.54-9.78,13.06-12.89,22.45-4.24,12.77-8.23,27.15-12.57,35.84-7.54,15.06-15.78,30-20.11,46.08s-4.46,33.78,3.84,48.72a8.43,8.43,0,0,0,3.25,3.65c3.42,1.76,7.61-.72,9.88-3.56s4-6.36,7.6-7.77c4-1.56,8.57.1,12.31,2.12s7.5,4.5,11.84,4.67c4.68.18,8.82-2.37,12.88-4.41s9.14-3.65,13.28-1.64C265.1,247.33,259.18,226.46,261.22,205.58Z" style="fill:#FF725E"></path><g style="opacity:0.30000000000000004"><path d="M260,204.15c1.2-12.46,5.14-24.52,7.46-36.83s2.63-24.88-2.58-36.49L256.67,126c-17.57,14.56-17.33,39.34-24.23,53.45-7.38,15.08-20.74,30.6-25,46.69s-7.79,37.47.29,52.39a13.22,13.22,0,0,0,5.65-4.22c2.22-2.84,3.76-6,7.27-7.35,3-1.15,6.73-.69,10.17,1.06h0c4.71,2.56,4.93,2.73,8.73,4.49,2.19,1,5.92,1.92,8.74.61,2.94-.84,5.36-3.79,8.09-5.2,4-2.05,8.92-3.66,12.95-1.66C263.67,245.89,257.94,225,260,204.15Z"></path></g><g style="opacity:0.30000000000000004"><path d="M262,222.89l-4.18,14.63-.47-.43-10.12,9.57v2.47l8.11,2.75a1.76,1.76,0,0,0,2.26-1.2L260.55,240l2.88-11.82Z"></path></g><path d="M260.18,278l-.8,10.48.31,2.37s8.07,11.88,6.79,13.88l-21.05-15.56,2.47-3.39.6-10.4Z" style="fill:#455a64"></path><path d="M245.43,289.19l1.25-1.57,19.71,15.5s.66,1.08.09,1.63Z" style="fill:#263238"></path><path d="M260.11,291c-.08.09-.63-.24-1.36-.3s-1.31.15-1.38,0,.5-.56,1.4-.47S260.19,291,260.11,291Z" style="fill:#263238"></path><path d="M261.68,293.52c-.05.11-.62,0-1.27.1s-1.08.52-1.18.44.25-.68,1.06-.86S261.74,293.42,261.68,293.52Z" style="fill:#263238"></path><path d="M261.08,297c-.11,0,.11-.64.77-1s1.29-.2,1.28-.08-.53.18-1.06.47S261.19,297,261.08,297Z" style="fill:#263238"></path><path d="M280.27,184.74c0,1.24-9,45.71-12.14,51.51S261,286.58,261,286.58l-14.12-1S246.1,254,248,242.07s3-16.66,3-16.66l-.73-34.7s-3.73-10-3.82-14.49,2.83-9.51,2.83-9.51Z" style="fill:#263238"></path><path d="M277.2,233.91,267,238.83s1.89,12.54.11,13.65l-10.83-20.43,15.51-8.36Z" style="fill:#455a64"></path><path d="M256.32,232.05l1.6-.77,9.78,19.87s.11,1.11-.55,1.33Z" style="fill:#263238"></path><path d="M267.31,239.11c-.09,0-.4-.43-1-.76s-1.1-.38-1.11-.49.61-.25,1.29.16S267.41,239.09,267.31,239.11Z" style="fill:#263238"></path><path d="M267.61,241.7c-.08.07-.47-.27-1.05-.4s-1.05,0-1.1-.1.45-.45,1.17-.28S267.7,241.65,267.61,241.7Z" style="fill:#263238"></path><path d="M265.83,244.21c-.07-.08.33-.47,1-.49s1.11.34,1.05.42-.49,0-1,0S265.89,244.3,265.83,244.21Z" style="fill:#263238"></path><path d="M269.5,237.72c-.11,0-.22-.53-.56-1.07s-.73-.89-.68-1,.62.15,1,.8S269.6,237.73,269.5,237.72Z" style="fill:#263238"></path><path d="M274.43,151.25s6,20.33,5.84,28.9-3.7,1.91-3.7,1.91l-2.14-31.57" style="fill:#263238"></path><path d="M247.56,188.07s4.65,11.76,11.57,13.6c3.81,1,14.24,3.08,22.19,4.31a75.08,75.08,0,0,1,13.29,3.67L263,227.89l6.7,10.75S306.75,221,311,217.45s6.06-11,.22-17c-2.6-2.67-33.89-23.09-33.89-23.09L273.69,170,249.3,181.57Z" style="fill:#263238"></path><path d="M302.08,207.77c0,.1-1.92.28-4.21.93s-4,1.49-4.07,1.39a4,4,0,0,1,1.1-.64,18.68,18.68,0,0,1,2.88-1.08,19,19,0,0,1,3-.58A3.7,3.7,0,0,1,302.08,207.77Z" style="fill:#455a64"></path><g style="opacity:0.30000000000000004"><path d="M260.55,202s4.07,3.64,8.81,4.25,6.37.88,6.37.88l.42-1.91Z"></path></g><path d="M253.16,197.45a23.45,23.45,0,0,0,3.14,2.34,30.89,30.89,0,0,0,8.91,3.14c3.63.81,7,1.3,9.39,1.75,1.2.22,2.17.4,2.84.56a5.24,5.24,0,0,1,1,.29,4.08,4.08,0,0,1-1.07-.09l-2.86-.4c-2.42-.36-5.78-.78-9.44-1.6a28.11,28.11,0,0,1-9-3.33,9.85,9.85,0,0,1-1.35-1,6.71,6.71,0,0,1-.93-.85A4.31,4.31,0,0,1,253.16,197.45Z" style="fill:#455a64"></path><path d="M276.23,177.05a9.74,9.74,0,0,1,2.9,1.36,10,10,0,0,1,2.63,1.82,10.14,10.14,0,0,1-2.89-1.37A10.3,10.3,0,0,1,276.23,177.05Z" style="fill:#455a64"></path><g style="opacity:0.30000000000000004"><path d="M250.38,197l26.84,3.23s1.29-18.56.45-22.34a33.49,33.49,0,0,0-1.88-6.36c0,.35-25.44,24-25.44,24Z"></path></g><path d="M274.57,157c-.79-7.72,2-12.93-5.9-23.24l-10.16-9.7a26.83,26.83,0,0,0-7.18-3.41,18,18,0,0,0-6.7-.48l-4.25.57.86,3.19,16.41,7.95,0,46.17,18.44-6.67Z" style="fill:#e0e0e0"></path><path d="M241.24,124s8.12-3.41,17,5.13c4.75,4.59,9,12.58,10.26,14.78s4.21,9.78,5.52,17.52a102.83,102.83,0,0,1,2.52,18.28,69.51,69.51,0,0,1-1.56,18.62l-32.62-3.64L247,168.13s-3.8-8.83-4.06-9.54c-2-5.51-2.82-4.22-5.29-15.34a25.48,25.48,0,0,1-.22-10.11c.64-3.56,1.66-4.93,3.91-8.27Z" style="fill:#263238"></path><path d="M270,147.72l-.25-.27-.69-.82-2.5-3-8.28-10.31-.05-.05,0-.07c.12-.62.26-1.27.4-1.93l.1-.51.21.19-2.07.57-.1,0-.07-.08c-.84-.95-1.7-1.85-2.57-2.66a15.7,15.7,0,0,0-2.68-2.11,8.08,8.08,0,0,0-3-.83c-1-.12-1.89-.19-2.72-.25-1.67-.09-3-.11-3.94-.12l-1.06,0a1.46,1.46,0,0,1-.37,0l.36,0,1.07,0c.93,0,2.27,0,3.95,0,.84,0,1.76.1,2.75.21a8.22,8.22,0,0,1,3.08.84,16.18,16.18,0,0,1,2.76,2.13,36.84,36.84,0,0,1,2.6,2.68l-.18-.05,2.07-.58.26-.07-.05.25-.1.51c-.14.66-.28,1.31-.4,1.93l0-.13,8.19,10.37,2.42,3.11.64.85A1.5,1.5,0,0,1,270,147.72Z" style="fill:#455a64"></path><path d="M260.53,167.56c0,.09-3,.28-6.72.41a65.65,65.65,0,0,1-6.74.07c0-.09,3-.27,6.73-.41S260.53,167.47,260.53,167.56Z" style="fill:#455a64"></path><path d="M275.84,172.73a1.71,1.71,0,0,1,.14.5c.07.33.17.81.28,1.44a46.22,46.22,0,0,1,.47,5.39,106.26,106.26,0,0,1-1.13,17.8l0,.25-.25,0-.18,0c-6.95-.79-13.28-1.18-17.85-1.64-2.29-.22-4.14-.42-5.41-.59-.64-.08-1.13-.16-1.47-.21a2.11,2.11,0,0,1-.5-.11,1.72,1.72,0,0,1,.52,0l1.47.12,5.42.43c4.57.36,10.91.69,17.89,1.49l.17,0-.29.22a118.67,118.67,0,0,0,1.28-17.72c0-2.28-.19-4.11-.3-5.37-.07-.58-.13-1.06-.18-1.45A2.86,2.86,0,0,1,275.84,172.73Z" style="fill:#455a64"></path><path d="M252.29,180.15a14.4,14.4,0,0,1-.37,1.52c-.29,1-.66,2.34-1.1,3.94l-.16-.23c3.56.18,8.56.47,14.09.83l-.27.19,0-.16c.56-2,1.11-3.87,1.61-5.62l.23.32c-4.05-.17-7.54-.35-10-.5l-2.95-.18a6.5,6.5,0,0,1-1.09-.11,6,6,0,0,1,1,0l2.91,0c2.5.05,6.05.14,10.18.28h.32l-.08.31c-.5,1.75-1,3.65-1.59,5.62l0,.17-.06.2-.21,0c-5.53-.36-10.53-.71-14.09-1l-.23,0,.07-.22c.53-1.61,1-2.95,1.31-4A9.39,9.39,0,0,1,252.29,180.15Z" style="fill:#455a64"></path><path d="M223.68,194.61a5,5,0,0,1-.39.65l-1.18,1.8c-1.06,1.55-2.49,3.84-4.23,6.69s-3.67,6.34-5.53,10.35a97.16,97.16,0,0,0-5.24,13.36,94,94,0,0,0-3.15,14c-.23,2.19-.54,4.27-.62,6.23-.05,1-.11,1.93-.16,2.84s0,1.78,0,2.62c-.06,1.67,0,3.18.07,4.51,0,.66.05,1.27.07,1.85s.09,1.08.13,1.55c.06.89.11,1.6.15,2.15a5.3,5.3,0,0,1,0,.75,4,4,0,0,1-.13-.74c-.06-.54-.14-1.25-.25-2.14-.05-.48-.1-1-.17-1.56l-.11-1.85c-.06-1.33-.18-2.84-.15-4.52,0-.84,0-1.72,0-2.63s.1-1.87.14-2.85c.06-2,.35-4.07.58-6.28a90.26,90.26,0,0,1,3.12-14.08,93.67,93.67,0,0,1,5.31-13.41,117.22,117.22,0,0,1,5.64-10.33c1.79-2.83,3.27-5.1,4.38-6.61l1.27-1.75A3.28,3.28,0,0,1,223.68,194.61Z" style="fill:#263238"></path><path d="M233.58,218.73s5.78-13.06,9.43-13.56,8.35-.09,8.91,2.32a25.35,25.35,0,0,1,.28,9.25,54.89,54.89,0,0,1-2.4,8.25l-3.49-1.55s4.47-13.44,4-15.78-6.54-2.51-7.91-.3-6.14,12.57-6.14,12.57Z" style="fill:#455a64"></path><path d="M214.93,233.81c1.94-5.53,6.39-17.66,8.35-23a2.89,2.89,0,0,1,3.6-1.75L260,219.82a2.88,2.88,0,0,1,1.88,3.54l-6.64,23.13a2.89,2.89,0,0,1-3.64,2l-34.84-10.92A2.89,2.89,0,0,1,214.93,233.81Z" style="fill:#455a64"></path><path d="M257.77,228.37s0,.08-.07.24l-.24.74c-.21.67-.52,1.63-.92,2.86-.81,2.51-2,6.12-3.43,10.58-.09.28-.18.56-.28.84a1.67,1.67,0,0,1-.47.82,1.6,1.6,0,0,1-.88.41,2.09,2.09,0,0,1-1-.16l-3.8-1.21-8.37-2.68-9.25-3-4.89-1.57-2.5-.81-.63-.2a3.31,3.31,0,0,1-.65-.25,1.64,1.64,0,0,1-.77-1.17,1.61,1.61,0,0,1,0-.62c.06-.21.12-.37.19-.56l.36-1.08c.25-.72.49-1.43.74-2.14.48-1.42,1-2.82,1.43-4.2.94-2.75,1.85-5.41,2.73-8l0-.12.12.05c9.35,3.61,17.48,6.37,23.27,8.24,2.89.94,5.19,1.65,6.77,2.14l1.82.57.46.14.15.06-.17-.05-.47-.13-1.81-.51c-1.59-.47-3.9-1.16-6.8-2.07-5.8-1.83-14-4.56-23.31-8.16l.16-.08-2.72,8c-.47,1.38-.94,2.78-1.43,4.2-.24.7-.48,1.42-.73,2.14-.12.36-.24.72-.37,1.08a2.24,2.24,0,0,0-.21,1.05,1.33,1.33,0,0,0,.65,1,2.27,2.27,0,0,0,.59.23l.63.2,2.5.81,4.89,1.57,9.24,3,8.37,2.71,3.79,1.22a1.88,1.88,0,0,0,.88.16,1.41,1.41,0,0,0,.78-.36,1.58,1.58,0,0,0,.42-.73l.28-.84c1.48-4.43,2.68-8,3.52-10.5.41-1.23.74-2.2,1-2.86l.25-.75C257.73,228.46,257.77,228.37,257.77,228.37Z" style="fill:#263238"></path><path d="M243.54,240.06s.21.06.61.11a3.13,3.13,0,0,0,1.69-.34,3.17,3.17,0,0,0,1.58-2.16l1.13-3.53c.22-.66.44-1.34.67-2a3,3,0,0,0,.05-2.22,2.87,2.87,0,0,0-1.63-1.68c-.8-.28-1.66-.54-2.52-.83l-11.25-3.68a2.9,2.9,0,0,0-2.79.57,2.73,2.73,0,0,0-.81,1.19c-.16.47-.32.94-.47,1.41-.31.94-.62,1.87-.91,2.77l-.45,1.34c-.13.44-.31.88-.39,1.31a2.9,2.9,0,0,0,.66,2.38,3.1,3.1,0,0,0,1,.73c.37.16.78.27,1.16.4l4.27,1.42,6.18,2.07,1.67.58.44.15.14.06-.15,0-.44-.13-1.69-.53-6.21-2L230.77,236c-.39-.14-.77-.24-1.18-.41a3.31,3.31,0,0,1-1.05-.78,3.15,3.15,0,0,1-.73-2.57,11,11,0,0,1,.4-1.34c.14-.45.29-.89.44-1.35.29-.9.6-1.83.9-2.77l.48-1.42a3.12,3.12,0,0,1,3.92-1.92l11.24,3.7c.87.29,1.71.56,2.53.85a3.08,3.08,0,0,1,1.76,1.81,3.3,3.3,0,0,1-.07,2.36c-.24.71-.46,1.39-.68,2-.43,1.3-.83,2.48-1.18,3.52a6.06,6.06,0,0,1-.27.75,3,3,0,0,1-.39.63,3.12,3.12,0,0,1-1,.82,3.06,3.06,0,0,1-1.75.3A2.19,2.19,0,0,1,243.54,240.06Z" style="fill:#263238"></path><g style="opacity:0.30000000000000004"><path d="M220.31,234.86a55.65,55.65,0,0,0,30.38,9.74Z"></path></g><path d="M242.47,230.32l-3.9-1.28a1.17,1.17,0,0,1-.75-1.47h0a1.18,1.18,0,0,1,1.48-.75l3.9,1.29a1.17,1.17,0,0,1,.75,1.47h0A1.17,1.17,0,0,1,242.47,230.32Z" style="fill:#e0e0e0"></path><path d="M251.23,202.45a10.73,10.73,0,0,1,1.45,2.15,29.85,29.85,0,0,1,.65,4.34s-.71.48-1.58-1.46a17.58,17.58,0,0,1-1.08-2.89Z" style="fill:#ae7461"></path><path d="M252,208.93l-.69-6.39-3.06-4.39-7.82.86.73,7.76a24.61,24.61,0,0,0,2.2,3.72c.63.55,1.66-.06,1.66-.06.71.85,2.28.3,2.28.3.92.84,2-.21,2-.21s1.21.85,1.7.72a1,1,0,0,0,.48-.4A2.81,2.81,0,0,0,252,208.93Z" style="fill:#ae7461"></path><path d="M244.19,208.86c.07,0,.3.28.51.7s.32.8.25.84-.3-.29-.51-.71S244.12,208.89,244.19,208.86Z" style="fill:#6f4439"></path><path d="M246.2,208.5c.08,0,.28.5.56,1.13a4.29,4.29,0,0,1,.46,1.18c-.06,0-.44-.41-.72-1.06A2.32,2.32,0,0,1,246.2,208.5Z" style="fill:#6f4439"></path><path d="M248.53,208.41c.08,0,.2.46.39,1s.36,1,.29,1.08a1.88,1.88,0,0,1-.56-1C248.45,208.93,248.45,208.42,248.53,208.41Z" style="fill:#6f4439"></path><path d="M251.46,204.55a10.52,10.52,0,0,1,.43,2.41,10.82,10.82,0,0,1,.14,2.44,10.67,10.67,0,0,1-.43-2.41A10.82,10.82,0,0,1,251.46,204.55Z" style="fill:#6f4439"></path><path d="M243.91,207.59s0,.12-.14.23a.88.88,0,0,1-.6.17.92.92,0,0,1-.57-.26c-.11-.12-.14-.23-.11-.25s.32.2.7.23S243.86,207.53,243.91,207.59Z" style="fill:#6f4439"></path><path d="M246.31,207.67s0,.12-.17.22a1.08,1.08,0,0,1-.66.15,1.07,1.07,0,0,1-.62-.24c-.13-.11-.17-.22-.15-.24s.36.18.79.2S246.26,207.61,246.31,207.67Z" style="fill:#6f4439"></path><path d="M250.76,206.61s.2.15.05.45a1.37,1.37,0,0,1-.89.58,1.75,1.75,0,0,1-1-.1c-.24-.12-.35-.25-.33-.28a3.35,3.35,0,0,0,1.32.1,1.47,1.47,0,0,0,.78-.41C250.78,206.79,250.72,206.63,250.76,206.61Z" style="fill:#6f4439"></path><path d="M253.15,140.21c-1.65,4.14-12.3,28.79-12.3,28.79s9.26,29.36,8.79,29.7-9.84,2.86-9.84,2.86S226.22,172.29,226,168.4s8.54-31.31,8.7-31.85,1.48-5.64,4.21-6.84c6.95-3,10.28-2.42,12.78.47,2.16,2.48,2.1,7.72,1.68,9.3A6.23,6.23,0,0,1,253.15,140.21Z" style="fill:#263238"></path><path d="M239.8,201.56a4.11,4.11,0,0,1,.67-.25l1.95-.62,7.17-2.17-.13.23c-1.71-5.72-4-13.45-6.58-22l-2.28-7.71,0-.08,0-.07c1.23-3.42,2.65-6.5,3.87-9.28s2.34-5.2,3.26-7.27,1.62-3.68,2.08-4.82l.54-1.3c.12-.29.19-.45.21-.44a2.32,2.32,0,0,1-.13.47c-.09.31-.24.76-.45,1.34-.42,1.15-1.08,2.82-2,4.88l-3.16,7.32c-1.19,2.79-2.59,5.88-3.79,9.26v-.15c.72,2.44,1.49,5,2.29,7.7,2.5,8.53,4.76,16.28,6.44,22l.06.19-.19,0-7.22,2-2,.52A3,3,0,0,1,239.8,201.56Z" style="fill:#455a64"></path><path d="M250.9,132.08c-.07,0-.58-.58-1.62-1.35a9.49,9.49,0,0,0-9.47-1.09c-1.18.51-1.83,1-1.88.94a4.45,4.45,0,0,1,1.73-1.27,9,9,0,0,1,5.09-.92,9.18,9.18,0,0,1,4.76,2.05A4.64,4.64,0,0,1,250.9,132.08Z" style="fill:#455a64"></path><path d="M240.46,122l18.68-.75-.58-1.2s3.59.07,2.88,3.51c-.42,2-19.95,2.66-23.71,7C237.91,127.79,238.3,124.55,240.46,122Z" style="fill:#FF725E"></path><path d="M262.75,122.54a2.07,2.07,0,0,0-1.92-1.83,2.38,2.38,0,0,0-2.34,1.22,2.31,2.31,0,0,0,.34,2.6,2.28,2.28,0,0,0,2.58.47A2.56,2.56,0,0,0,262.75,122.54Z" style="fill:#FF725E"></path><path d="M261.47,124.73a1.19,1.19,0,0,1,.32,0,5.13,5.13,0,0,1,.92,0,9.4,9.4,0,0,1,3.25,1c.32.17.65.35,1,.56a2.74,2.74,0,0,1,1,.88,1.23,1.23,0,0,1-.12,1.47,1.63,1.63,0,0,1-1.48.44,12.56,12.56,0,0,1-5.2-3.51l.42-.29.33.75a9.69,9.69,0,0,1,.92,3.3,4.45,4.45,0,0,1-.92,3.1,1.6,1.6,0,0,1-1.49.64,1,1,0,0,1-.7-.5,1.91,1.91,0,0,1-.22-.73,12.56,12.56,0,0,1,1-6,4.31,4.31,0,0,1,.63-1.16,17.67,17.67,0,0,0-1.19,4.67,13,13,0,0,0,0,2.41c.05.41.21.78.58.83a1.13,1.13,0,0,0,1-.5,4,4,0,0,0,.78-2.76,9.4,9.4,0,0,0-.88-3.12l-.33-.75-.56-1.25,1,1a21.72,21.72,0,0,0,2.38,2.09,7.79,7.79,0,0,0,2.52,1.33,1.19,1.19,0,0,0,1.08-.29.76.76,0,0,0,.08-1,2.47,2.47,0,0,0-.81-.76c-.32-.21-.63-.4-.94-.57A10.65,10.65,0,0,0,261.47,124.73Z" style="fill:#FF725E"></path><path d="M258,123.18a29,29,0,0,1-5.42.91,28,28,0,0,1-5.49.4,29.84,29.84,0,0,1,5.43-.91A27.84,27.84,0,0,1,258,123.18Z" style="fill:#263238"></path><path d="M259.42,124.64c0,.08-.45.17-.86-.32a2.32,2.32,0,0,1,1.38-3.63c.58-.11.92,0,.91.09s-.34.08-.8.26a2.22,2.22,0,0,0-1.29,1.27,2.2,2.2,0,0,0,.1,1.79C259.09,124.52,259.42,124.57,259.42,124.64Z" style="fill:#263238"></path><path d="M244.69,415.16c-.15,0-.26-16.53-.26-36.91s.11-36.91.26-36.91.26,16.52.26,36.91S244.83,415.16,244.69,415.16Z" style="fill:#263238"></path><path d="M253,445.51c-.14,0-.26-28.69-.26-64.07s.12-64.08.26-64.08.26,28.68.26,64.08S253.17,445.51,253,445.51Z" style="fill:#263238"></path></g><g id="freepik--character-1--inject-76"><path d="M126.68,250.24a25.46,25.46,0,0,1,1.29-19c.14.39.29.79.44,1.18l-3.06-22.91c-3.54-.92-7.38.92-9.67,3.78A17.19,17.19,0,0,0,112.6,220l-.15.65c-.21.94-.38,1.9-.5,2.85-.09.64-.19,1.32-.29,2a30.24,30.24,0,0,1-6.08,12.12c-1.8,2.14-3.89,4-5.52,6.29s-2.82,5-2.42,7.8l2.92,1.69a37,37,0,0,1,7.88-12.91c-1.7,4.59-4,8.62-5,13.84-.41,2.09.44,3.19,2.32,4a15.66,15.66,0,0,0,5.08,1.17c1.84.14,3.69.23,5.54.29a4.68,4.68,0,0,0,2.82-.52c2.21-1.49,1.78-4.49,1.78-4.49,0,.15,1.42,3.6,1.73,3.63,0,0,4.19,0,5.23-1s.31-1.63-.11-3.19C127.45,252.85,127.11,251.54,126.68,250.24Z" style="fill:#263238"></path><path d="M112.74,230.73c.75-3.45-.73-7.56.2-11s2.65-6.79,5.62-8.7,7.36-1.9,9.71.74l-.1,3.06c-4.16,13-7.12,26.56-11.28,39.58-.55,1.71-2.33,3-3.48,4.35s-2,.17-3.73-.33c-2.25-.67-4.92-1.25-4.47-3.56C107,245.55,110.92,239.06,112.74,230.73Z" style="fill:#263238"></path><path d="M121.64,213.81a8.92,8.92,0,0,1,.69-2.66,3.07,3.07,0,0,1,2-1.73,1.27,1.27,0,0,1,1.2.31.69.69,0,0,1-.21,1.07l0,.11c-.58,1.15-1.18,2.28-1.79,3.41a2.57,2.57,0,0,1-.57.77.9.9,0,0,1-.91.16C121.56,215,121.56,214.34,121.64,213.81Z" style="fill:#455a64"></path><path d="M121.14,217.41a16.16,16.16,0,0,1,9.3-10.47c2.62-1.11,3.94-1,6-1.26a9,9,0,0,1,6,1.24,15,15,0,0,1,5.31,5.28,42.78,42.78,0,0,1,3.24,7.05,14.29,14.29,0,0,1,.48,7.66l-5.68,3.52a41.65,41.65,0,0,1-10.28,3.51c-3.59.55-7.49.07-10.41-2.1C121.11,228.83,119.63,222.23,121.14,217.41Z" style="fill:#263238"></path><path d="M126.55,215.18l6.83-6.5,2.22-.61c4.79-1.91,10.21,2,11.8,5.89,1.77,4.29,3.75,9.59,4.35,13,1.19,6.93-4,9.65-4,9.65s1.48,3.35,2.38,5.47l-1.74,9.23-11.07-5.11-12-28A2.45,2.45,0,0,1,126.55,215.18Z" style="fill:#ffbf9d"></path><path d="M147.75,219.78a.88.88,0,0,1-.52,1.12.85.85,0,0,1-1.13-.46.9.9,0,0,1,.52-1.13A.86.86,0,0,1,147.75,219.78Z" style="fill:#263238"></path><path d="M146.81,216.7c-.07.14-.87-.11-1.78.2s-1.41,1-1.55.91,0-.26.19-.57a2.45,2.45,0,0,1,1.2-.87,2.34,2.34,0,0,1,1.46,0C146.68,216.47,146.84,216.63,146.81,216.7Z" style="fill:#263238"></path><path d="M143.91,226a6.5,6.5,0,0,1,1.38-.77c.22-.1.43-.23.41-.4a1.2,1.2,0,0,0-.39-.63c-.4-.49-.83-1-1.28-1.53a31.86,31.86,0,0,1-3.11-4.09,31.34,31.34,0,0,1,3.43,3.83l1.26,1.55a1.39,1.39,0,0,1,.43.87.6.6,0,0,1-.27.47,2.18,2.18,0,0,1-.37.19A6.36,6.36,0,0,1,143.91,226Z" style="fill:#263238"></path><path d="M147.72,236.64a17.63,17.63,0,0,1-9.6.64s3.89,3.76,10.26.91Z" style="fill:#ff9a6c"></path><path d="M145.25,213.71c-.07.28-.82.36-1.61.71s-1.38.78-1.63.64-.1-.31.11-.63a2.72,2.72,0,0,1,2.61-1.09C145.1,213.42,145.28,213.58,145.25,213.71Z" style="fill:#263238"></path><path d="M137.84,223.33a.89.89,0,0,0,1.12.53.86.86,0,0,0,.57-1.08.89.89,0,0,0-1.12-.53A.84.84,0,0,0,137.84,223.33Z" style="fill:#263238"></path><path d="M134.66,221.19c.14.07.6-.64,1.49-1s1.72-.14,1.78-.29-.15-.22-.52-.32a2.46,2.46,0,0,0-2.61,1C134.61,220.93,134.59,221.16,134.66,221.19Z" style="fill:#263238"></path><path d="M134.05,218.13c.25.14.86-.34,1.69-.66s1.58-.45,1.66-.73c0-.13-.15-.29-.53-.36a2.73,2.73,0,0,0-1.51.19,2.66,2.66,0,0,0-1.2.93C134,217.82,133.93,218.06,134.05,218.13Z" style="fill:#263238"></path><path d="M130.73,228.59c-.16-.49-1.12-1.45-1.63-1.36-1.36.24-3.65,1.13-2.56,4.42,1.5,4.49,5.7,2.06,5.66,1.93S131.31,230.28,130.73,228.59Z" style="fill:#ffbf9d"></path><path d="M130.42,232.35s-.06.08-.17.19a.84.84,0,0,1-.58.21c-.54,0-1.19-.64-1.48-1.44a2.69,2.69,0,0,1-.15-1.2.91.91,0,0,1,.39-.79.41.41,0,0,1,.53.06c.1.1.1.2.13.2s.07-.11,0-.28a.51.51,0,0,0-.27-.22.65.65,0,0,0-.47,0,1.15,1.15,0,0,0-.58,1,2.87,2.87,0,0,0,.14,1.34,2.15,2.15,0,0,0,1.79,1.56.87.87,0,0,0,.67-.36C130.45,232.46,130.44,232.36,130.42,232.35Z" style="fill:#ff9a6c"></path><path d="M128.93,227.31l1.57.71c3-6.54,7.72-21.85,7.47-21a15.07,15.07,0,0,0-7.17,2c-3.33,2-9.39,6.57-7.59,10.75A23.65,23.65,0,0,0,128.93,227.31Z" style="fill:#263238"></path><path d="M122.17,228.91a1.18,1.18,0,0,1,0-.28,6,6,0,0,1,0-.81,7,7,0,0,1,1-2.8,13.06,13.06,0,0,1,3-3.26c1.27-1.07,2.78-2.1,4.12-3.45a23.21,23.21,0,0,0,3.35-4.17,23.92,23.92,0,0,0,2-3.9,25.16,25.16,0,0,0,.92-2.81l.2-.78c.05-.18.08-.28.08-.27a1,1,0,0,1,0,.28c0,.18-.08.45-.15.79a23.45,23.45,0,0,1-.86,2.85,23.16,23.16,0,0,1-2,4,22.84,22.84,0,0,1-3.37,4.22,51.45,51.45,0,0,1-4.15,3.45,13.33,13.33,0,0,0-3,3.18,7,7,0,0,0-1,2.72A10.44,10.44,0,0,0,122.17,228.91Z" style="fill:#455a64"></path><path d="M123.72,229.09a2.42,2.42,0,0,1-.21-1,4.77,4.77,0,0,1,.81-2.73,10.68,10.68,0,0,1,3.08-2.9,23.87,23.87,0,0,0,4-3.27,20.87,20.87,0,0,0,3-4.14,21.68,21.68,0,0,0,1.68-3.85,22.23,22.23,0,0,0,.69-2.75c.05-.31.09-.56.12-.76l.06-.27a.8.8,0,0,1,0,.27c0,.21,0,.46-.08.78a19.7,19.7,0,0,1-.62,2.79,20.51,20.51,0,0,1-1.64,3.9,20.28,20.28,0,0,1-3.07,4.19,22.74,22.74,0,0,1-4,3.29,10.56,10.56,0,0,0-3.06,2.82,4.81,4.81,0,0,0-.87,2.63A6,6,0,0,0,123.72,229.09Z" style="fill:#455a64"></path><path d="M141.44,227.7a.7.7,0,0,0-.43,0,.61.61,0,0,0-.27.3,1.67,1.67,0,0,0,.26,1.8,1.65,1.65,0,0,0,1.77.43,1.92,1.92,0,0,0,1.15-2.06C143.15,228.05,142.21,227.83,141.44,227.7Z" style="fill:#ff9a6c"></path><path d="M142.77,230.24a2.35,2.35,0,0,1-1-.05,1.57,1.57,0,0,1-.83-.66,1.59,1.59,0,0,1-.15-1.26c.07-.21.18-.44.34-.47a2,2,0,0,1,.62.06l1.13.2a5.26,5.26,0,0,0,1.06.12,4.9,4.9,0,0,0-1-.28l-1.12-.25a2,2,0,0,0-.72-.07.53.53,0,0,0-.34.26,2,2,0,0,0-.17.36,1.8,1.8,0,0,0,.2,1.45,1.69,1.69,0,0,0,1,.7A1.24,1.24,0,0,0,142.77,230.24Z" style="fill:#263238"></path><path d="M127.49,233.43a2.29,2.29,0,0,1-.9-.09,7.84,7.84,0,0,1-2.31-.89,9.44,9.44,0,0,1-2.75-2.42,10.64,10.64,0,0,1-1.9-4.07,13.37,13.37,0,0,1,.77-8,16,16,0,0,1,1.11-2.19,2.78,2.78,0,0,1,.54-.72c.08.05-.61,1.13-1.31,3a14,14,0,0,0-.6,7.76,10.71,10.71,0,0,0,1.77,3.91,9.9,9.9,0,0,0,2.56,2.39A13.39,13.39,0,0,0,127.49,233.43Z" style="fill:#455a64"></path><path d="M153.74,323.58c2.32-24.09,14.83-49.29,5.1-73l-22.35-9.92c-9.62,4.54-8.93,13-11.79,22.26-3.9,12.64-7.59,26.88-11.57,35.48-13.61,28.82-33.2,68.08-12.32,97.39,12,3.42,10.59-20,27-9.27,14.9,12.52,21.19-5.72,34.4-1.57C157,364.82,151.78,344.22,153.74,323.58Z" style="fill:#FF725E"></path><g style="opacity:0.30000000000000004"><path d="M152.73,322.38c2.3-24,14.48-48.9,4.81-72.5l-7.36-4.71c-16,14.48-15.9,39-22.22,53-16.24,28.47-36.7,64.52-22.9,98.06,8-4,9.41-17.15,21-10.51,21,15.2,18.27-6.74,34.88-2C155.87,363.61,150.79,343,152.73,322.38Z"></path></g><path d="M123.89,305.83l-.09.23c-.09.17-.19.37-.31.63l-1.24,2.41c-1.09,2.09-2.66,5.11-4.55,8.87-1,1.87-2,3.95-3.06,6.17s-2.19,4.62-3.35,7.15a148.15,148.15,0,0,0-6.52,16.84,81.19,81.19,0,0,0-3.49,17.68,75.5,75.5,0,0,0,.27,14.72c.12,1.05.2,2,.34,3s.28,1.82.41,2.64l.36,2.3c.14.7.27,1.34.38,1.92.22,1.13.39,2,.51,2.67l.12.69a.87.87,0,0,1,0,.24.81.81,0,0,1-.07-.23c-.05-.18-.1-.41-.17-.68l-.61-2.65c-.13-.58-.27-1.21-.42-1.91s-.26-1.48-.4-2.3-.3-1.71-.46-2.64-.24-1.94-.38-3a74,74,0,0,1-.38-14.8A80.14,80.14,0,0,1,104.27,348a144.93,144.93,0,0,1,6.58-16.89c1.18-2.52,2.28-4.93,3.41-7.14s2.12-4.29,3.11-6.15c1.94-3.74,3.56-6.73,4.71-8.79q.83-1.5,1.32-2.37l.35-.61A.68.68,0,0,1,123.89,305.83Z" style="fill:#263238"></path><path d="M117.52,349.9c.09,0-.35,1.51-.87,3.94a96.4,96.4,0,0,0-1.49,9.61c-.37,3.73-.7,7.1-1,9.71-.14,1.24-.26,2.25-.36,2.94a4.18,4.18,0,0,1-.21,1.07,4.21,4.21,0,0,1,0-1.09c0-.81.12-1.8.19-2.95.18-2.49.41-5.94.82-9.73a72.31,72.31,0,0,1,1.64-9.64c.31-1.21.59-2.19.83-2.85A5,5,0,0,1,117.52,349.9Z" style="fill:#263238"></path><path d="M128.65,329a12.25,12.25,0,0,1-.4,1.73c-.3,1.11-.7,2.72-1.17,4.71a130.68,130.68,0,0,0-3.46,31.69c0,2,.07,3.7.12,4.84a11.22,11.22,0,0,1,0,1.79,12.6,12.6,0,0,1-.21-1.77c-.12-1.14-.22-2.8-.29-4.85a115,115,0,0,1,.61-16,113.32,113.32,0,0,1,2.87-15.77c.51-2,1-3.58,1.32-4.67A13.77,13.77,0,0,1,128.65,329Z" style="fill:#263238"></path><path d="M158.54,289.58s2.52-5.1,5.46-1.53c6.95,8.41,19.26,23.29,24.53,30.83,2.59,3.7,8.22,10.66,7.64,12.72-4.5,15.94-36.49,48.28-36.49,48.28l-7.84-3.7s10.63-14.65,14.28-24.08c4.42-11.42,10.86-16.51,10.86-16.51L155.8,320.82l-2.66-19Z" style="fill:#ffbf9d"></path><path d="M162.29,382.84S167.68,396,166,397.65l-17.2-19.34,3.08-2.78.62-1.09a9.75,9.75,0,0,0,5.1,4.13c3.25.93,3.21.09,3.21.09l1.45,4.18" style="fill:#455a64"></path><path d="M148.83,378.31l1.53-1.27,15.92,19s.41,1.17-.25,1.59Z" style="fill:#263238"></path><path d="M162.66,383.07c-.09.07-.55-.36-1.25-.57-1.75-.14-1.75-.63.1-.41C162.36,382.35,162.76,383,162.66,383.07Z" style="fill:#263238"></path><path d="M163.67,385.8a7.58,7.58,0,0,0-2.47,0C161.05,385.09,163.79,385.12,163.67,385.8Z" style="fill:#263238"></path><path d="M162.4,389c-.28-.57,2.13-1.21,2.19-.62C164.51,388.38,162.46,389,162.4,389Z" style="fill:#263238"></path><path d="M167.64,269.83c-.09-2.38,11.47,43.07,2.11,30.46l-2.11-31.21" style="fill:#263238"></path><path d="M171.43,311.87C169.81,327.74,161.12,366,156.06,392c-1.64,8.41-3.23,15.56-3.64,20.2l-9-.6c.09-2-1.92-22-2-34.94,0-4.51,2-11.06,3.58-15.3a17.44,17.44,0,0,0,1.26-5.47c-.1-12.55-4.4-38.48-4.4-38.48-2.08-5.12-6.21-16.89-1-23.73l27,5.7Z" style="fill:#ffbf9d"></path><path d="M152.42,412.21a3.35,3.35,0,0,1,.06-.73c.07-.53.17-1.22.29-2.08.25-1.81.67-4.42,1.23-7.64,1.12-6.43,2.88-15.28,4.95-25s3.92-18.52,5.28-24.95l1.56-7.57.43-2.06a4,4,0,0,1,.19-.71,3.36,3.36,0,0,1-.09.73c-.08.52-.19,1.21-.34,2.07-.3,1.8-.77,4.4-1.39,7.61-1.23,6.41-3.07,15.24-5.13,25s-3.89,18.57-5.09,25c-.62,3.2-1.08,5.8-1.4,7.6-.16.86-.29,1.54-.38,2.06A6.08,6.08,0,0,1,152.42,412.21Z" style="fill:#ff9a6c"></path><path d="M154.67,414.7s8,11.75,6.71,13.73l-20.82-15.38,2.45-3.36.38-1.2a9.79,9.79,0,0,0,5.84,3c3.37.23,3.17-.57,3.17-.57l2.27,3.78" style="fill:#455a64"></path><path d="M140.56,413.05l1.24-1.56,19.5,15.33s.64,1.06.08,1.61Z" style="fill:#263238"></path><path d="M155.08,414.85c-.08.09-.62-.24-1.34-.3-1.74.22-1.84-.25,0-.42C154.64,414.21,155.17,414.78,155.08,414.85Z" style="fill:#263238"></path><path d="M156.63,417.32a7.72,7.72,0,0,0-2.41.53C153.92,417.16,156.61,416.63,156.63,417.32Z" style="fill:#263238"></path><path d="M156.05,420.72c-.39-.51,1.84-1.62,2-1.06C158,419.67,156.1,420.65,156.05,420.72Z" style="fill:#263238"></path><path d="M145.59,351.75s10-5,18.63-9.38l3.2-1.62c4.14-2.09,7.58-3.85,8.86-4.54,4.11-2.21,18.55-9.71,18.55-9.71S182,307.58,173,298.58l-3.75-8.81s-29.76,5.09-30.25,5.41-1.56,14.77-.71,17.4a72.17,72.17,0,0,1,1.9,9.91C140.41,324.28,145.59,351.75,145.59,351.75Z" style="fill:#263238"></path><path d="M166.07,325.83a63.91,63.91,0,0,1,1.12,11.49,63.91,63.91,0,0,1-1.12-11.49Z" style="fill:#455a64"></path><path d="M168,329.4c.1-.11,1,.57,2.09,1.36s2,1.38,2,1.51a4.78,4.78,0,0,1-2.28-1.09C168.64,330.37,167.9,329.5,168,329.4Z" style="fill:#455a64"></path><g style="opacity:0.30000000000000004"><path d="M139,315.19l30.72,3.18s2.23-10,1.74-15.86a58.88,58.88,0,0,0-2.31-11.6L138.3,312.58Z"></path></g><path d="M166.64,189.79s.21-7,0-8c-.4-1.93-2.76-4.79-4.5-2.7-.15-1.18-3.73-1.56-2.95.51-.07-.76-1.73-1.16-2.32-.24-6.15-2.22,2.79,11.6,2.48,12Z" style="fill:#ffbf9d"></path><path d="M158.64,190.13s-3.92-3.07-4.34-4.16c-1.07-3.83,1.28-5.65,3.7-7.08,1.92.62-.13,3.13-1.23,4.34,0,0,3.62-.21,4.82,3.09" style="fill:#ffbf9d"></path><path d="M161.59,186.32a5.26,5.26,0,0,0-5.12-2.95c.66-1.13,3.46-3.15,1.47-4.33h.16c-6.32,3.43-4.1,7.73.54,11.1-5.23-3-7-8.17-.66-11.43,2.4,1.11-.2,3.45-1.1,4.62l-.12-.23A4.78,4.78,0,0,1,161.59,186.32Z" style="fill:#ff9a6c"></path><path d="M158.94,179.72c0,2,1.88,7.08,3.89,3.61" style="fill:#ffbf9d"></path><path d="M162.83,183.33c-2.13,4.5-4.4-3.11-3.89-3.61C159.05,179.92,160.42,187.08,162.83,183.33Z" style="fill:#ff9a6c"></path><path d="M157.24,182.9c-.1,1.94,2.63,3.48,2.69.6" style="fill:#ffbf9d"></path><path d="M159.93,183.5c.39,3.08-3.19,1.6-2.69-.6C157.58,184.66,159.48,186.12,159.93,183.5Z" style="fill:#ff9a6c"></path><path d="M162.34,179.05c-2,4.26,2.33,6.7,2.38,1.29" style="fill:#ffbf9d"></path><path d="M164.72,180.34c.41,5.56-4.86,3.4-2.38-1.29C161,183,164.07,185.67,164.72,180.34Z" style="fill:#ff9a6c"></path><path d="M149.63,241.05c10.67-20.3,7.57-30.9,7.57-50.76,0,.3,11.35-1.93,11.35-1.93s1.84,27.53,2,30.7c.38,8.74-9.6,30.69-7.31,40.5Z" style="fill:#263238"></path><path d="M162.56,251.11A48.45,48.45,0,0,1,157.08,238C158.23,241.29,161.05,248,162.56,251.11Z" style="fill:#455a64"></path><path d="M167.78,275.55c-.78-7.63,2.75-13.67-6.7-22.4-8.8-8.13-13.52-16.58-27.11-13.45l.86,3.15,16.22,7.86,0,45.65,18.24-6.59Z" style="fill:#e0e0e0"></path><path d="M134.83,242.85c29-5.11,39,52.12,33.31,73.49l-32.24-3.59,4.64-26.23c-4.18-11.31-16.18-29.29-5.59-42.78Z" style="fill:#263238"></path><path d="M163.29,266.33c-3.91-4.58-6.92-8.54-11.64-14.34.17-.78.35-1.65.52-2.47l.21.18-2.15.6c-3.61-5.66-10.34-6.31-16.2-6,5.87-.7,12.73.15,16.38,5.74l-.17-.05,2.31-.65c-.18.88-.38,1.82-.55,2.66l0-.12C156.56,257.74,159.71,261.5,163.29,266.33Z" style="fill:#455a64"></path><rect x="132.74" y="267.29" width="26.75" height="35.66" transform="translate(114.11 -33.66) rotate(21.4)" style="fill:#455a64"></rect><path d="M168.92,289.77a1.82,1.82,0,0,1,.13.5c.07.34.18.83.28,1.48a50.05,50.05,0,0,1,.48,5.53,124,124,0,0,1-1,18.63l0,.25-.26,0-3.27-.36-20.77-2c-2.65-.26-4.8-.5-6.28-.69-.74-.09-1.32-.18-1.71-.24a2.23,2.23,0,0,1-.58-.12,2.47,2.47,0,0,1,.6,0l1.71.14,6.3.53c5.32.45,12.67,1,20.78,1.82l3.28.36-.28.22a140,140,0,0,0,1.17-18.55c0-2.35-.2-4.22-.31-5.52-.08-.6-.14-1.09-.19-1.48A2,2,0,0,1,168.92,289.77Z" style="fill:#455a64"></path><path d="M150.59,292c1.06-1.65,10.72,1.34,11.53,2,.22,1.3-5.29-.56-4.86-.51Z" style="fill:#ffbf9d"></path><path d="M161.33,295.05c-4.74-2.9-5.08-3.25-10.88-3.19l-2.9,6.89,5.82,3.3c.44,0,5.33,1.44,5-.81,1.06-.05,1.55-1.56,1.55-1.56,1.18-.21,1-1.67,1-1.67C162.83,297.7,163,296.13,161.33,295.05Z" style="fill:#ffbf9d"></path><path d="M156.73,300.94c0-.18,1.69.16,1.62.32S156.66,301.11,156.73,300.94Z" style="fill:#ff9a6c"></path><path d="M157.63,299.2a11.68,11.68,0,0,1,2.35.57C160,300,157.5,299.44,157.63,299.2Z" style="fill:#ff9a6c"></path><path d="M158.92,297.38a8.49,8.49,0,0,1,2,.7C160.9,298.36,158.77,297.6,158.92,297.38Z" style="fill:#ff9a6c"></path><path d="M157.69,292.89a21.26,21.26,0,0,1,4,2.4A21,21,0,0,1,157.69,292.89Z" style="fill:#ff9a6c"></path><path d="M155.61,300.42c.4.39-.48,1.37-.91,1A2,2,0,0,0,155.61,300.42Z" style="fill:#ff9a6c"></path><path d="M157.07,298.63c.33.43-.55,1.44-1,1.16A3.25,3.25,0,0,0,157.07,298.63Z" style="fill:#ff9a6c"></path><path d="M158.85,294.63c1.08.11,0,2.3-.8,2.07C158.25,296.67,159.61,295.12,158.85,294.63Z" style="fill:#ff9a6c"></path><path d="M142.77,258.52c-1.71,4.28-9.27,22.54-9.27,22.54l18.19,10-3.84,9.14c-15.29-3.75-22.62-7.91-26-10.49-5.52-4.26-1.35-11.63,6.06-33.68.16-.56,2.52-7,5.35-8.27C144.25,243,145,250.38,142.77,258.52Z" style="fill:#263238"></path><path d="M130.7,284.11a4.38,4.38,0,0,1,.67-.89c.46-.55,1.14-1.33,2-2.29l0,.06c.76-2.08,1.93-4.8,3.22-7.79s2.62-5.91,3.6-8.12l1.11-2.45a4.58,4.58,0,0,1,.46-.88,20.58,20.58,0,0,1-1.23,3.48c-.85,2.11-2.08,5-3.46,8.18-1.29,3-2.51,5.69-3.34,7.71l0,0,0,0c-.88.92-1.6,1.67-2.11,2.18A4.56,4.56,0,0,1,130.7,284.11Z" style="fill:#455a64"></path><path d="M143.35,255a8.89,8.89,0,0,1-.86-1.76A13.51,13.51,0,0,0,140,249.4a6.91,6.91,0,0,0-4-2,14.07,14.07,0,0,0-1.92.05A3,3,0,0,1,136,247a6.65,6.65,0,0,1,4.35,2,11.54,11.54,0,0,1,2.5,4.1A6.15,6.15,0,0,1,143.35,255Z" style="fill:#455a64"></path><path d="M134.05,240.88l14.93-.6-.32-.77a3.24,3.24,0,0,1,2.4,4.07c-.41,2-15.8,1.47-19.51,5.77C131.73,246.62,131.92,243.42,134.05,240.88Z" style="fill:#FF725E"></path><path d="M153.4,241.88c-.2-2.15-3.33-2.4-4.21-.6C147.57,244.85,153.71,245.83,153.4,241.88Z" style="fill:#FF725E"></path><path d="M152.73,242.55a4.9,4.9,0,0,1,1.21,0,9.78,9.78,0,0,1,3.19.85,4.07,4.07,0,0,1,1.79,1.52,1.23,1.23,0,0,1,0,1.43,1.63,1.63,0,0,1-1.46.38,6.51,6.51,0,0,1-2.7-1.27,17.08,17.08,0,0,1-2.35-2.1l.43-.28.3.74a12.93,12.93,0,0,1,.81,3.21,4.3,4.3,0,0,1-.65,3.08,1.26,1.26,0,0,1-1.52.43,1.89,1.89,0,0,1-.93-1.13,5.26,5.26,0,0,1-.17-2.46,11.55,11.55,0,0,1,1.05-3.33,4.84,4.84,0,0,1,.62-1.11,6.34,6.34,0,0,1-.44,1.19A13.4,13.4,0,0,0,151,247a4.91,4.91,0,0,0,.2,2.26,1.5,1.5,0,0,0,.71.86.82.82,0,0,0,1-.31,4,4,0,0,0,.5-2.73,12.51,12.51,0,0,0-.79-3.07l-.29-.73-.51-1.27.94,1a18.07,18.07,0,0,0,2.27,2.06,6.16,6.16,0,0,0,2.47,1.2,1.16,1.16,0,0,0,1-.21c.23-.21.17-.61,0-.93a3.78,3.78,0,0,0-1.58-1.4,10.55,10.55,0,0,0-3.06-1A7.64,7.64,0,0,1,152.73,242.55Z" style="fill:#FF725E"></path><path d="M150.41,244.28c0,.06-.34.16-.81-.1a1.88,1.88,0,0,1-.91-1.74,2.66,2.66,0,0,1,.81-1.77c.35-.34.63-.47.67-.42s-.14.29-.39.66a3,3,0,0,0-.57,1.55,1.77,1.77,0,0,0,.6,1.42C150.13,244.15,150.42,244.2,150.41,244.28Z" style="fill:#263238"></path><path d="M135,245a7.48,7.48,0,0,1,1.94-.64c1.21-.32,2.91-.7,4.8-1s3.61-.54,4.86-.65a7.28,7.28,0,0,1,2-.05c0,.15-3.05.56-6.81,1.22S135,245.15,135,245Z" style="fill:#263238"></path><path d="M141.88,241.22a15.13,15.13,0,0,1,6.91,1.11,17.24,17.24,0,0,1-3.47-.45A16.1,16.1,0,0,1,141.88,241.22Z" style="fill:#263238"></path><path d="M180.54,307.14a18.44,18.44,0,0,1-2.23-2.13c-1.33-1.37-3.14-3.28-5.12-5.41l-.21-.23,0,0v0c-1.09-2.62-2-5-2.7-6.7a18.24,18.24,0,0,1-1-2.82,16.17,16.17,0,0,1,1.31,2.68c.75,1.68,1.75,4,2.84,6.64l0-.07.21.23c2,2.13,3.75,4.08,5,5.5A18.24,18.24,0,0,1,180.54,307.14Z" style="fill:#455a64"></path><path d="M154.78,474.07c-.14,0-.26-5.43-.26-12.14s.12-12.15.26-12.15.26,5.44.26,12.15S154.92,474.07,154.78,474.07Z" style="fill:#263238"></path><path d="M160,466.91c-.14,0-.26-5.87-.26-13.1s.12-13.1.26-13.1.26,5.86.26,13.1S160.14,466.91,160,466.91Z" style="fill:#263238"></path></g></svg>
